SplineFontDB: 3.0
FontName: LoyalSansv1.2
FullName: Loyal Sans Regular
FamilyName: Loyal Sans
Weight: Regular
Copyright: Copyright (c) 2024, Emmet Blanchette
UComments: "2023-12-11: Created with FontForge (http://fontforge.org)"
Version: 001.200
ItalicAngle: 0
UnderlinePosition: -100
UnderlineWidth: 50
Ascent: 800
Descent: 200
InvalidEm: 0
LayerCount: 2
Layer: 0 0 "Back" 1
Layer: 1 0 "Fore" 0
XUID: [1021 65 -877688889 9584006]
FSType: 0
OS2Version: 0
OS2_WeightWidthSlopeOnly: 0
OS2_UseTypoMetrics: 1
CreationTime: 1702354516
ModificationTime: 1714172247
PfmFamily: 33
TTFWeight: 400
TTFWidth: 5
LineGap: 90
VLineGap: 0
OS2TypoAscent: 0
OS2TypoAOffset: 1
OS2TypoDescent: 0
OS2TypoDOffset: 1
OS2TypoLinegap: 90
OS2WinAscent: 0
OS2WinAOffset: 1
OS2WinDescent: 0
OS2WinDOffset: 1
HheadAscent: 0
HheadAOffset: 1
HheadDescent: 0
HheadDOffset: 1
OS2Vendor: 'PfEd'
Lookup: 4 0 1 "'liga' Standard Ligatures in Latin lookup 0" { "'liga' Standard Ligatures in Latin lookup 0-1"  } ['liga' ('DFLT' <'dflt' > 'latn' <'dflt' > ) ]
Lookup: 258 0 0 "'kern' Horizontal Kerning in Latin lookup 0" { "'kern' Horizontal Kerning in Latin lookup 0-1" [75,15,3] } ['kern' ('DFLT' <'dflt' > 'latn' <'dflt' > ) ]
MarkAttachClasses: 1
DEI: 91125

StartChar: A
Encoding: 19 65 0
Width: 471
VWidth: 0
Flags: W
HStem: 0 21G<0 24.8906 353.796 430.24> 200.36 19.8398<95.1504 282.061>
LayerCount: 2
Fore
SplineSet
95.150390625 220.200195312 m 1
 282.060546875 220.200195312 l 1
 189.780273438 481.870117188 l 2
 188.400390625 485.91015625 182.719726562 485.8203125 181.4296875 481.780273438 c 2
 95.150390625 220.200195312 l 1
215.6796875 616.75 m 2
 430.240234375 0 l 1
 360.959960938 0 l 1
 289.190429688 200.360351562 l 1
 88.650390625 200.360351562 l 1
 17.8203125 0 l 1
 0 0 l 1
 207.330078125 616.66015625 l 2
 208.620117188 620.620117188 214.299804688 620.709960938 215.6796875 616.75 c 2
EndSplineSet
Validated: 524289
EndChar

StartChar: B
Encoding: 20 66 1
Width: 454
VWidth: 0
Flags: W
HStem: 0.0400391 19.8604<64.4502 177.456> 378.78 19.8701<64.4502 171.095> 599.78 19.8994<64.4502 203.304>
VStem: 0 64.4502<19.9004 378.78 398.65 599.78> 293.38 64.6299<452.318 553.059> 338.42 64.6094<122.155 272.197>
LayerCount: 2
Fore
SplineSet
64.4599609375 599.780273438 m 1xf8
 64.4501953125 599.780273438 l 1
 64.4501953125 398.650390625 l 1
 95.779296875 398.650390625 l 2
 197.76953125 398.650390625 293.379882812 432.129882812 293.379882812 503.129882812 c 0
 293.379882812 581.450195312 182.620117188 599.780273438 131.069335938 599.780273438 c 2
 64.4599609375 599.780273438 l 1xf8
95.779296875 19.900390625 m 0
 255.4296875 19.900390625 338.419921875 109.51953125 338.419921875 199.33984375 c 0xf4
 338.419921875 292.76953125 238.299804688 378.780273438 95.779296875 378.780273438 c 0
 83.3798828125 378.780273438 64.4501953125 378.780273438 64.4501953125 378.780273438 c 1
 64.4501953125 19.900390625 l 1
 64.4501953125 19.900390625 87.9501953125 19.900390625 95.779296875 19.900390625 c 0
182.620117188 389.549804688 m 1
 266.529296875 389.549804688 403.01953125 333.790039062 403.029296875 203.139648438 c 0xf4
 403.029296875 167.76953125 398.299804688 116.990234375 359.569335938 75.080078125 c 0
 320.83984375 33.08984375 232.01953125 0.0400390625 95.7900390625 0.0400390625 c 2
 0 0.0400390625 l 1
 0 619.6796875 l 1
 167.389648438 619.6796875 l 2
 263.950195312 619.6796875 358.009765625 593.259765625 358.009765625 507.110351562 c 0xf8
 358.009765625 414.509765625 246.649414062 389.549804688 182.620117188 389.549804688 c 1
EndSplineSet
Validated: 524289
EndChar

StartChar: C
Encoding: 21 67 2
Width: 575
VWidth: 0
Flags: W
HStem: 607.89 25.6299<229.886 374.587>
VStem: 0 64.6299<196.929 432.301> 486.85 24.0098<127.085 163.62> 490.64 12.8203<457.56 473.582>
LayerCount: 2
Fore
SplineSet
0 311.969726562 m 0xe0
 0 512.580078125 122.330078125 633.51953125 291.959960938 633.51953125 c 0
 405.08984375 633.51953125 487.889648438 576.650390625 503.459960938 457.559570312 c 1
 503.459960938 457.559570312 494.509765625 455.919921875 490.639648438 455.150390625 c 0xd0
 464.69921875 556.58984375 398.26953125 607.889648438 297.330078125 607.889648438 c 0
 155.899414062 607.889648438 64.6298828125 455.3203125 64.6298828125 315.580078125 c 0
 64.6298828125 183.9296875 141.469726562 81.6201171875 209.529296875 41.7802734375 c 0
 277.239257812 1.9404296875 415.689453125 17.33984375 466.029296875 106.23046875 c 0
 472.739257812 118.190429688 481.859375 141.759765625 486.849609375 163.620117188 c 1
 510.859375 163.620117188 l 1
 505.609375 113.110351562 483.149414062 69.580078125 441.16015625 35.5 c 0
 325.859375 -58.0302734375 164.779296875 -9.41015625 93.7900390625 64.330078125 c 0
 36.2294921875 124.129882812 0 212.0703125 0 311.969726562 c 0xe0
EndSplineSet
Validated: 524321
EndChar

StartChar: D
Encoding: 22 68 3
Width: 508
VWidth: 0
Flags: W
HStem: 0 19.8604<64.4697 184.673> 599.78 19.8994<64.4697 189.821>
VStem: 0 64.4697<19.8604 599.78> 367.6 70.4707<202.212 442.421>
LayerCount: 2
Fore
SplineSet
129.450195312 19.8603515625 m 2
 265.599609375 19.8603515625 367.58984375 171 367.599609375 316.280273438 c 0
 367.599609375 499.25 261.48046875 599.780273438 129.450195312 599.780273438 c 2
 64.4697265625 599.780273438 l 1
 64.4697265625 19.8603515625 l 1
 129.450195312 19.8603515625 l 2
129.450195312 619.6796875 m 2
 357.780273438 619.6796875 438.080078125 479.650390625 438.0703125 339.540039062 c 0
 438.0703125 215.33984375 400.370117188 130.48046875 342.879882812 76.6904296875 c 0
 285.389648438 22.8095703125 208.280273438 0 129.440429688 0 c 2
 0 0 l 1
 0 619.6796875 l 1
 129.450195312 619.6796875 l 2
EndSplineSet
Validated: 524321
EndChar

StartChar: E
Encoding: 23 69 4
Width: 449
VWidth: 0
Flags: W
HStem: 0 19.8799<64.46 386.18> 321.89 19.8799<64.46 268.609> 599.8 19.8799<64.46 386.18>
VStem: 0 64.46<19.8799 321.89 341.77 599.8>
LayerCount: 2
Fore
SplineSet
64.4599609375 19.8798828125 m 1
 389.5390625 19.8798828125 l 1
 386.1796875 0 l 1
 0 0 l 1
 0 619.6796875 l 1
 386.1796875 619.6796875 l 1
 387.559570312 599.799804688 l 1
 64.4599609375 599.799804688 l 1
 64.4599609375 341.76953125 l 1
 268.609375 341.76953125 l 1
 268.609375 321.889648438 l 1
 64.4599609375 321.889648438 l 1
 64.4599609375 19.8798828125 l 1
EndSplineSet
Validated: 524289
EndChar

StartChar: F
Encoding: 24 70 5
Width: 446
VWidth: 0
Flags: W
HStem: 0 21G<0 64.46> 321.89 19.8799<64.46 268.609> 599.8 19.8799<64.46 386.18>
VStem: 0 64.46<0 321.89 341.77 599.8>
LayerCount: 2
Fore
SplineSet
386.1796875 619.6796875 m 1
 389.5390625 599.799804688 l 1
 64.4599609375 599.799804688 l 1
 64.4599609375 341.76953125 l 1
 268.609375 341.76953125 l 1
 268.609375 321.889648438 l 1
 64.4599609375 321.889648438 l 1
 64.4599609375 0 l 1
 0 0 l 1
 0 619.6796875 l 1
 386.1796875 619.6796875 l 1
EndSplineSet
Validated: 524289
EndChar

StartChar: G
Encoding: 25 71 6
Width: 573
VWidth: 0
Flags: W
HStem: 607.97 25.5498<226.29 362.621>
VStem: 1.84082 65.0498<188.902 428.684> 437.91 64.96<99.9889 308.01> 483.08 12.6504<446.12 460.47>
LayerCount: 2
Fore
SplineSet
483.080078125 444.139648438 m 1xd0
 446.870117188 563.780273438 375.840820312 607.959960938 291.55078125 607.969726562 c 0
 136.669921875 607.969726562 66.890625 423.490234375 66.890625 306.900390625 c 0
 66.890625 177.75 137.790039062 80.08984375 207.400390625 39.8203125 c 0
 274.080078125 1.1796875 373.98046875 13.66015625 418.720703125 103.23046875 c 0
 434.380859375 134.459960938 437.91015625 181.26953125 437.91015625 207.599609375 c 2
 438 308.009765625 l 1
 502.959960938 308.009765625 l 1
 502.870117188 207.599609375 l 2xe0
 502.870117188 118.110351562 474.8203125 68.1201171875 434.640625 33.6201171875 c 0
 382.669921875 -10.8701171875 312.120117188 -16.0302734375 285.270507812 -16.0302734375 c 0
 235.100585938 -16.0302734375 159.040039062 -2.6904296875 93.8203125 61.9296875 c 0
 36.0908203125 119.240234375 1.8408203125 205.370117188 1.8408203125 303.370117188 c 0
 1.8408203125 401.98046875 35.310546875 499.809570312 92.9599609375 556.599609375 c 0
 166.270507812 628.700195312 237.600585938 633.51953125 291.890625 633.51953125 c 0
 389.120117188 633.51953125 481.020507812 569.139648438 495.73046875 446.120117188 c 1
 495.73046875 446.120117188 488.330078125 445 483.080078125 444.139648438 c 1xd0
EndSplineSet
Validated: 524321
EndChar

StartChar: H
Encoding: 26 72 7
Width: 517
VWidth: 0
Flags: W
HStem: 0 21G<0 64.4707 375.431 439.98> 318.45 19.8799<64.4707 375.431> 599.68 20G<0 64.4707 375.431 439.98>
VStem: 0 64.4707<0 318.45 338.33 619.68> 375.431 64.5498<0 318.45 338.33 619.68>
LayerCount: 2
Fore
SplineSet
439.98046875 619.6796875 m 1
 439.98046875 0 l 1
 375.430664062 0 l 1
 375.430664062 318.450195312 l 1
 64.470703125 318.450195312 l 1
 64.470703125 0 l 1
 0 0 l 1
 0 619.6796875 l 1
 64.470703125 619.6796875 l 1
 64.470703125 338.330078125 l 1
 375.430664062 338.330078125 l 1
 375.430664062 619.6796875 l 1
 439.98046875 619.6796875 l 1
EndSplineSet
Validated: 524289
EndChar

StartChar: I
Encoding: 27 73 8
Width: 137
VWidth: 0
Flags: W
HStem: 0 21G<0 64.5498> 599.68 20G<0 64.5498>
VStem: 0 64.5498<0 619.68>
LayerCount: 2
Fore
SplineSet
0 0 m 1
 0 619.6796875 l 1
 64.5498046875 619.6796875 l 1
 64.5498046875 0 l 1
 0 0 l 1
EndSplineSet
Validated: 524289
EndChar

StartChar: J
Encoding: 28 74 9
Width: 267
VWidth: 0
Flags: W
HStem: 599.68 20G<99 163.55>
VStem: 99 64.5498<-43.3404 619.68>
LayerCount: 2
Fore
SplineSet
-9.1904296875 -141.08984375 m 1
 -12.630859375 -121.459960938 l 1
 79.3798828125 -90.080078125 99 -11.5400390625 99 46.5498046875 c 2
 99 619.6796875 l 1
 163.549804688 619.6796875 l 1
 163.549804688 98.1904296875 l 2
 163.549804688 63.0703125 162.08984375 33.8095703125 159.25 8.759765625 c 0
 151.069335938 -63.1904296875 93.3994140625 -109.419921875 -9.1904296875 -141.08984375 c 1
EndSplineSet
Validated: 524289
EndChar

StartChar: K
Encoding: 29 75 10
Width: 474
VWidth: 0
Flags: W
HStem: 0 21G<0 64.46 309.006 411.909> 599.68 20G<0 64.46 332.763 378.689>
VStem: 0 64.46<0 301.84 314.49 619.68>
LayerCount: 2
Fore
SplineSet
119.799804688 344.26953125 m 1
 411.909179688 0 l 1
 326.359375 0 l 1
 64.4599609375 301.83984375 l 1
 64.4599609375 0 l 1
 0 0 l 1
 0 619.6796875 l 1
 64.4599609375 619.6796875 l 1
 64.4599609375 314.490234375 l 1
 351.579101562 619.6796875 l 1
 378.689453125 619.6796875 l 1
 119.799804688 344.26953125 l 1
EndSplineSet
Validated: 524289
EndChar

StartChar: L
Encoding: 30 76 11
Width: 440
VWidth: 0
Flags: W
HStem: 0 19.8799<64.46 386.18> 599.68 20G<0 64.46>
VStem: 0 64.46<19.8799 619.68>
LayerCount: 2
Fore
SplineSet
389.5390625 19.8798828125 m 1
 386.1796875 0 l 1
 0 0 l 1
 0 619.6796875 l 1
 64.4599609375 619.6796875 l 1
 64.4599609375 19.8798828125 l 1
 389.5390625 19.8798828125 l 1
EndSplineSet
Validated: 524289
EndChar

StartChar: M
Encoding: 31 77 12
Width: 618
VWidth: 0
Flags: W
HStem: 0 21G<-0.480469 19.3096 472.447 537> 599.68 20G<-0.480469 61.3775 477.571 537>
VStem: -0.480469 19.79<0 535.33> 472.45 64.5498<0 534.3>
LayerCount: 2
Fore
SplineSet
536.919921875 487.400390625 m 1
 537 0 l 1
 472.450195312 0 l 1
 472.370117188 534.299804688 l 1
 260.379882812 12.650390625 l 1
 19.3095703125 535.330078125 l 1
 19.3095703125 0 l 1
 -0.48046875 0 l 1
 -0.48046875 619.6796875 l 1
 52.189453125 619.6796875 l 1
 282.069335938 119.290039062 l 1
 485.709960938 619.6796875 l 1
 537 619.6796875 l 1
 536.919921875 487.400390625 l 1
EndSplineSet
Validated: 524289
EndChar

StartChar: N
Encoding: 32 78 13
Width: 550
VWidth: 0
Flags: W
HStem: 0 21G<-0.270508 19.5303> 599.68 20G<-0.270508 73.4664 445.21 465>
VStem: -0.270508 19.8008<0 563.91> 445.21 19.79<99.5801 619.68>
LayerCount: 2
Fore
SplineSet
445.209960938 619.6796875 m 1
 465 619.6796875 l 1
 465 -8.6904296875 l 1
 445.379882812 -8.6904296875 l 1
 19.5302734375 563.91015625 l 1
 19.5302734375 0 l 1
 -0.2705078125 0 l 1
 -0.2705078125 619.6796875 l 1
 58.599609375 619.6796875 l 1
 445.209960938 99.580078125 l 1
 445.209960938 619.6796875 l 1
EndSplineSet
Validated: 524289
EndChar

StartChar: O
Encoding: 33 79 14
Width: 550
VWidth: 0
Flags: W
HStem: -16.0596 21.0791<210.136 303.986> 613.15 20.3691<200.512 300.519>
VStem: 2.74023 65.71<161.461 453.927> 435.95 65.7002<170.179 456.725>
LayerCount: 2
Fore
SplineSet
252.209960938 633.51953125 m 0
 426.040039062 633.51953125 501.66015625 491.530273438 501.650390625 309.58984375 c 0
 501.650390625 196.049804688 466.33984375 -16.0595703125 244.650390625 -16.0595703125 c 0
 63.400390625 -16.0595703125 2.740234375 161.91015625 2.740234375 309.58984375 c 0
 2.740234375 434.419921875 51.830078125 633.51953125 252.209960938 633.51953125 c 0
68.4501953125 306.91015625 m 0
 68.4501953125 150.280273438 137.350585938 5.01953125 262.83984375 5.01953125 c 0
 357.419921875 5.01953125 435.950195312 148.490234375 435.950195312 306.91015625 c 0
 435.950195312 470.150390625 370.790039062 613.150390625 250 613.150390625 c 0
 124.91015625 613.150390625 68.4501953125 450.379882812 68.4501953125 306.91015625 c 0
EndSplineSet
Validated: 524321
EndChar

StartChar: P
Encoding: 34 80 15
Width: 447
VWidth: 0
Flags: W
HStem: 0 21G<0 64.46> 221.36 19.6992<64.4902 188.564> 599.39 20.29<64.4902 202.508>
VStem: 0 64.4902<0 221.36 241.06 599.39>
LayerCount: 2
Fore
SplineSet
64.490234375 599.389648438 m 1
 64.490234375 241.059570312 l 1
 105.30078125 241.059570312 l 2
 282.680664062 241.059570312 327.630859375 342.129882812 327.630859375 420.33984375 c 0
 327.630859375 503.23046875 263.16015625 599.389648438 138.990234375 599.389648438 c 2
 64.490234375 599.389648438 l 1
374.209960938 504.780273438 m 0
 409.240234375 437.650390625 393.919921875 348.139648438 355.110351562 301.5703125 c 0
 291.25 224.969726562 229.020507812 221.360351562 96.48046875 221.360351562 c 2
 64.4599609375 221.360351562 l 1
 64.4599609375 0 l 1
 0 0 l 1
 0 619.6796875 l 1
 133.400390625 619.6796875 l 2
 219.890625 619.6796875 316.98046875 614.4296875 374.209960938 504.780273438 c 0
EndSplineSet
Validated: 524321
EndChar

StartChar: Q
Encoding: 35 81 16
Width: 557
VWidth: 0
Flags: W
HStem: -141.12 13.6904<455.632 476.529> -16.0498 20.3096<212.04 231.785> 613.17 20.3496<197.947 298.044>
VStem: 0 65.75<163.287 454.166> 433.58 65.7695<167.676 457.814>
LayerCount: 2
Fore
SplineSet
65.75 307.169921875 m 0
 65.75 150.389648438 134.719726562 4.259765625 260.319335938 4.259765625 c 0
 354.969726562 4.259765625 433.580078125 148.610351562 433.580078125 307.169921875 c 0
 433.580078125 470.549804688 368.370117188 613.169921875 247.469726562 613.169921875 c 0
 122.259765625 613.169921875 65.75 450.759765625 65.75 307.169921875 c 0
290.379882812 -12.8701171875 m 1
 332.849609375 -87.330078125 386.689453125 -105.4296875 479.540039062 -127.4296875 c 1
 478.33984375 -132.940429688 476.529296875 -141.120117188 476.529296875 -141.120117188 c 1
 363.859375 -141.120117188 269.959960938 -117.870117188 227.669921875 -16.0498046875 c 1
 57.44921875 -7.7001953125 0 166.040039062 0 309.809570312 c 0
 0 434.799804688 49.099609375 633.51953125 249.719726562 633.51953125 c 0
 423.629882812 633.51953125 499.349609375 491.91015625 499.349609375 309.809570312 c 0
 499.349609375 205.059570312 469.029296875 13.75 290.379882812 -12.8701171875 c 1
EndSplineSet
Validated: 524289
EndChar

StartChar: R
Encoding: 36 82 17
Width: 504
VWidth: 0
Flags: W
HStem: 0 21G<0 64.46 355.718 447.971> 312.41 18.0596<64.5057 156.98> 599.34 20.3301<64.4707 209.348>
VStem: 0 64.46<0 310.78 330.47 599.34>
LayerCount: 2
Fore
SplineSet
64.470703125 330.469726562 m 1
 105.350585938 330.469726562 l 2
 255.110351562 330.469726562 309.5 381.25 309.5 464.73046875 c 0
 309.5 547.610351562 245.430664062 599.33984375 139 599.33984375 c 2
 64.470703125 599.33984375 l 1
 64.470703125 330.469726562 l 1
232.98046875 322.740234375 m 1
 447.970703125 0 l 1
 369.310546875 0 l 1
 156.98046875 312.41015625 l 1
 127.370117188 310.610351562 64.4599609375 310.780273438 64.4599609375 310.780273438 c 1
 64.4599609375 0 l 1
 0 0 l 1
 0 619.669921875 l 1
 133.400390625 619.669921875 l 2
 219.900390625 619.669921875 327.310546875 622.849609375 365.780273438 519.66015625 c 0
 411.740234375 396.580078125 291.419921875 333.0703125 232.98046875 322.740234375 c 1
EndSplineSet
Validated: 524321
EndChar

StartChar: S
Encoding: 37 83 18
Width: 475
VWidth: 0
Flags: W
HStem: -16.0703 24.8799<159.762 274.009> 613.63 19.8896<158.584 274.285>
VStem: 22.2793 53.3008<425.478 552.484> 369.29 48.5596<80.1907 212.977>
LayerCount: 2
Fore
SplineSet
417.849609375 159.629882812 m 0
 417.849609375 54.9501953125 321.870117188 -16.0703125 218.819335938 -16.0703125 c 0
 123.779296875 -16.0703125 55 37.3896484375 14.6298828125 107.290039062 c 1
 2.0595703125 166.690429688 0 217.129882812 0 217.129882812 c 1
 0 217.129882812 8.08984375 217.73046875 13.080078125 218.16015625 c 1
 13.76953125 211.530273438 15.4892578125 195 17.3798828125 185.879882812 c 0
 38.0400390625 88.169921875 138.069335938 8.8095703125 216.919921875 8.8095703125 c 0
 277.1796875 8.8095703125 369.290039062 56.9296875 369.290039062 144.740234375 c 0
 369.290039062 223.759765625 310.83984375 258.799804688 202.370117188 286.950195312 c 0
 65.0693359375 322.669921875 22.279296875 387.75 22.279296875 485.459960938 c 0
 22.279296875 566.120117188 103.969726562 633.51953125 213.819335938 633.51953125 c 0
 293.529296875 633.51953125 324.349609375 616.219726562 369.370117188 577.650390625 c 1
 384.779296875 540.719726562 383.919921875 467.459960938 383.919921875 467.459960938 c 1
 383.919921875 467.459960938 375.569335938 466.4296875 370.41015625 465.8203125 c 1
 370.069335938 470.120117188 369.029296875 479.849609375 367.649414062 488.629882812 c 0
 350.790039062 597.450195312 256.529296875 613.629882812 218.309570312 613.629882812 c 0
 148.319335938 613.629882812 75.580078125 577.990234375 75.580078125 498.190429688 c 0
 75.580078125 432.76953125 113.969726562 378.360351562 216.239257812 350.73046875 c 0
 347.609375 315.1796875 417.849609375 277.8203125 417.849609375 159.629882812 c 0
EndSplineSet
Validated: 524321
EndChar

StartChar: T
Encoding: 38 84 19
Width: 558
VWidth: 0
Flags: W
HStem: 0 21G<219.899 284.37> 599.89 19.79<0 219.899 284.37 504.18>
VStem: 219.899 64.4707<0 599.89>
LayerCount: 2
Fore
SplineSet
504.1796875 619.6796875 m 5
 504.1796875 599.889648438 l 5
 284.370117188 599.889648438 l 5
 284.370117188 0 l 5
 219.899414062 0 l 5
 219.899414062 599.889648438 l 5
 0 599.889648438 l 5
 0 619.6796875 l 5
 504.1796875 619.6796875 l 5
EndSplineSet
Validated: 524289
EndChar

StartChar: U
Encoding: 39 85 20
Width: 473
VWidth: 0
Flags: W
HStem: -16.0703 17.3799<159.929 273.627> 599.68 19.9902G<-0.00399901 64.46 379.19 398.99>
VStem: -0.0898438 64.5498<69.7229 619.67> 379.19 19.7998<104.335 619.68>
LayerCount: 2
Fore
SplineSet
379.200195312 619.6796875 m 1
 398.990234375 619.6796875 l 1
 398.990234375 172.580078125 l 2
 398.990234375 48.3896484375 342.01953125 -16.0703125 203.969726562 -16.0703125 c 0
 84.080078125 -16.0703125 -0.08984375 31.6103515625 -0.08984375 170.33984375 c 2
 0 619.669921875 l 1
 64.4599609375 619.669921875 l 1
 64.4599609375 168.009765625 l 2
 64.4599609375 41.150390625 138.129882812 1.3095703125 215.0703125 1.3095703125 c 0
 285.729492188 1.3095703125 379.190429688 30.400390625 379.190429688 172.5703125 c 2
 379.190429688 619.6796875 l 1
 379.200195312 619.6796875 l 1
EndSplineSet
Validated: 524289
EndChar

StartChar: V
Encoding: 40 86 21
Width: 500
VWidth: 0
Flags: W
HStem: 599.68 20G<0 76.0835 421.314 448.141>
LayerCount: 2
Fore
SplineSet
426.959960938 619.6796875 m 1
 448.140625 619.6796875 l 1
 267.66015625 -16.0703125 l 1
 225.23046875 -16.0703125 l 1
 0 619.6796875 l 1
 69.0302734375 619.6796875 l 1
 267.830078125 55.9697265625 l 1
 426.959960938 619.6796875 l 1
EndSplineSet
Validated: 524289
EndChar

StartChar: W
Encoding: 41 87 22
Width: 747
VWidth: 0
Flags: W
HStem: 599.68 20G<0 76.1603 238.391 317.426 419.647 446.58 660.481 687.21>
LayerCount: 2
Fore
SplineSet
666.129882812 619.6796875 m 1
 687.209960938 619.6796875 l 1
 506.740234375 -16.0703125 l 1
 464.400390625 -16.0703125 l 1
 355.190429688 299.440429688 l 1
 267.66015625 -15.98046875 l 1
 225.23046875 -15.98046875 l 1
 0 619.6796875 l 1
 69.1103515625 619.6796875 l 1
 267.8203125 55.9599609375 l 1
 343.560546875 331.280273438 l 1
 238.390625 619.6796875 l 1
 311.110351562 619.6796875 l 1
 374.110351562 420.190429688 l 1
 424.720703125 619.6796875 l 1
 446.580078125 619.6796875 l 1
 385.8203125 388.259765625 l 1
 506.91015625 55.9697265625 l 1
 666.129882812 619.6796875 l 1
EndSplineSet
Validated: 524289
EndChar

StartChar: X
Encoding: 42 88 23
Width: 493
VWidth: 0
Flags: W
HStem: 0 21G<24.5205 59.9118 360.036 447.25> 599.68 19.8301G<0 87.2134 373.015 408.36>
LayerCount: 2
Fore
SplineSet
384.530273438 619.6796875 m 1
 408.360351562 619.6796875 l 1
 243.6796875 339.009765625 l 1
 447.25 0 l 1
 372.049804688 0 l 1
 206.509765625 275.58984375 l 1
 48.4404296875 0 l 1
 24.5205078125 0 l 1
 196.270507812 292.719726562 l 1
 0 619.509765625 l 1
 75.2001953125 619.509765625 l 1
 233.08984375 356.650390625 l 1
 384.530273438 619.6796875 l 1
EndSplineSet
Validated: 524289
EndChar

StartChar: Y
Encoding: 43 89 24
Width: 518
VWidth: 0
Flags: W
HStem: 0 21G<207.5 272.05> 599.68 20G<0 85.0989 447.119 481.279>
VStem: 207.5 64.5498<0 248.22>
LayerCount: 2
Fore
SplineSet
458.469726562 619.6796875 m 1
 481.279296875 619.6796875 l 1
 272.049804688 250.799804688 l 1
 272.049804688 0 l 1
 207.5 0 l 1
 207.5 248.219726562 l 1
 0 619.6796875 l 1
 73.9296875 619.6796875 l 1
 264.649414062 278.169921875 l 1
 458.469726562 619.6796875 l 1
EndSplineSet
Validated: 524289
EndChar

StartChar: Z
Encoding: 44 90 25
Width: 477
VWidth: 0
Flags: W
HStem: 0 19.7998<60.1602 417.34> 599.89 19.79<0 325.93>
LayerCount: 2
Fore
SplineSet
417.33984375 19.7998046875 m 1
 417.33984375 0 l 1
 -15.3203125 0 l 1
 -15.3203125 19.6201171875 l 1
 325.9296875 599.889648438 l 1
 0 599.889648438 l 1
 0 619.6796875 l 1
 412.4296875 619.6796875 l 1
 60.16015625 19.7998046875 l 1
 417.33984375 19.7998046875 l 1
EndSplineSet
Validated: 524289
EndChar

StartChar: comma
Encoding: 2 44 26
Width: 166
VWidth: 0
Flags: W
HStem: -16.0498 108.1<10.7439 76.6411>
VStem: 0 108.1<-5.1849 81.3059>
LayerCount: 2
Fore
SplineSet
108.099609375 38 m 0
 108.099609375 18.0302734375 107.669921875 7.48046875 101.009765625 -12.16015625 c 0
 91.41015625 -40.349609375 62.9599609375 -55.23046875 30.009765625 -73.73046875 c 1
 27.58984375 -69.150390625 23.1796875 -60.9296875 20.3193359375 -55.66015625 c 1
 26.7197265625 -52.5498046875 36.580078125 -47.7001953125 38.3095703125 -46.83984375 c 0
 50.419921875 -40.5302734375 68.1396484375 -26.6904296875 76.9697265625 -10.9501953125 c 1
 69.9697265625 -14.150390625 62.26953125 -16.0498046875 54.0498046875 -16.0498046875 c 0
 24.2197265625 -16.0498046875 0 8.16015625 0 38 c 0
 0 67.83984375 24.2099609375 92.0498046875 54.0498046875 92.0498046875 c 0
 83.8896484375 92.0498046875 108.099609375 67.830078125 108.099609375 38 c 0
EndSplineSet
Validated: 524289
EndChar

StartChar: hyphen
Encoding: 3 45 27
Width: 276
VWidth: 0
Flags: W
HStem: 183.729 64.5703<0 216.27>
VStem: 0 216.27<183.729 248.299>
LayerCount: 2
Fore
SplineSet
0 248.298828125 m 5
 216.26953125 248.298828125 l 5
 216.26953125 183.728515625 l 5
 0 183.728515625 l 5
 0 248.298828125 l 5
EndSplineSet
Validated: 524289
EndChar

StartChar: period
Encoding: 4 46 28
Width: 162
VWidth: 0
Flags: W
HStem: -16.0596 108.119<10.7385 97.3806>
VStem: 0 108.119<-5.32105 81.3179>
LayerCount: 2
Fore
SplineSet
54.0595703125 92.0595703125 m 0
 83.919921875 92.0595703125 108.119140625 67.849609375 108.119140625 38 c 0
 108.119140625 8.1396484375 83.919921875 -16.0595703125 54.0595703125 -16.0595703125 c 0
 24.19921875 -16.0595703125 0 8.1396484375 0 38 c 0
 0 67.8603515625 24.19921875 92.0595703125 54.0595703125 92.0595703125 c 0
EndSplineSet
Validated: 524289
EndChar

StartChar: slash
Encoding: 5 47 29
Width: 231
VWidth: 0
Flags: W
HStem: 613.52 20G<176.839 186.169>
VStem: 0.429688 207.57
LayerCount: 2
Fore
SplineSet
0.4296875 -10.9296875 m 1
 182.489257812 633.51953125 l 1
 189.849609375 631.129882812 208 625 208 625 c 1
 24 -18 l 5
 16.7294921875 -16.0400390625 0.4296875 -10.9296875 0.4296875 -10.9296875 c 1
EndSplineSet
Validated: 524289
EndChar

StartChar: zero
Encoding: 6 48 30
Width: 510
VWidth: 0
Flags: W
HStem: -16.0801 19.8604<196.156 276.053> 613.66 19.8496<182.053 277.882>
VStem: 0 64.5801<172.24 470.535> 383.07 64.5996<144.648 484.437>
LayerCount: 2
Fore
SplineSet
447.669921875 318.849609375 m 0
 447.669921875 129.389648438 393.950195312 -16.0703125 240.1796875 -16.080078125 c 0
 84.650390625 -16.080078125 0 117.190429688 0 314.290039062 c 0
 0 550.6796875 107.040039062 633.509765625 238.009765625 633.509765625 c 0
 351.310546875 633.509765625 447.669921875 560.6796875 447.669921875 318.849609375 c 0
64.580078125 321.98046875 m 0
 64.580078125 135.620117188 149.120117188 3.7802734375 233.060546875 3.7802734375 c 0
 315.98046875 3.7802734375 383.0703125 93.919921875 383.0703125 318.860351562 c 0
 383.0703125 468.870117188 348.580078125 613.66015625 231.639648438 613.66015625 c 0
 108.83984375 613.66015625 64.580078125 474.870117188 64.580078125 321.98046875 c 0
EndSplineSet
Validated: 524289
EndChar

StartChar: one
Encoding: 7 49 31
Width: 145
VWidth: 0
Flags: W
HStem: 0 21G<0 64.5498> 599.68 20G<0 64.5498>
VStem: 0 64.5498<0 619.68>
LayerCount: 2
Fore
SplineSet
0 0 m 1
 0 619.6796875 l 1
 64.5498046875 619.6796875 l 1
 64.5498046875 0 l 1
 0 0 l 1
EndSplineSet
Validated: 524289
EndChar

StartChar: two
Encoding: 8 50 32
Width: 457
VWidth: 0
Flags: W
HStem: 0 64.5498<38.1406 386.7> 614.16 19.3496<129.995 246.688>
VStem: 0 39.2607<497.206 549.027> 332.311 68.5898<405.257 560.679>
LayerCount: 2
Fore
SplineSet
0 498.009765625 m 5
 6.2705078125 568.75 86.1005859375 633.51953125 198.8203125 633.509765625 c 4
 302.530273438 633.509765625 400.900390625 597.879882812 400.900390625 488.580078125 c 4
 400.900390625 402.780273438 336.010742188 343.650390625 297.80078125 308.450195312 c 6
 38.140625 64.5498046875 l 5
 402.970703125 64.3798828125 l 5
 386.700195312 0 l 5
 -8.330078125 0 l 5
 -8.330078125 48.2001953125 l 5
 218.620117188 261.219726562 l 6
 249.430664062 290.8203125 288.5 323.610351562 306.23046875 353.8203125 c 4
 324.390625 384.799804688 332.310546875 413.459960938 332.310546875 485.240234375 c 4
 332.310546875 587.740234375 253.140625 614.16015625 184.370117188 614.16015625 c 4
 114.110351562 614.16015625 45.5 581.139648438 39.2607421875 493.5 c 5
 0 498.009765625 l 5
EndSplineSet
Validated: 524321
EndChar

StartChar: three
Encoding: 9 51 33
Width: 424
VWidth: 0
Flags: W
HStem: -16.0703 19.8398<100.662 218.693> 324.95 20.0693<154.96 198.639> 613.72 19.79<119.243 227.286>
VStem: 0 48.1494<40.6406 95.4502> 297.97 64.6006<417.984 560.211> 308.75 64.5898<84.7899 255.302>
LayerCount: 2
Fore
SplineSet
48.1494140625 95.4501953125 m 5xf4
 43.259765625 15.1201171875 116.639648438 3.7900390625 162.149414062 3.76953125 c 4
 277.6796875 3.76953125 308.75 104.950195312 308.75 174.379882812 c 4xf4
 308.75 294.610351562 216.9296875 324.950195312 154.959960938 324.950195312 c 5
 154.959960938 345.01953125 l 5
 227.099609375 345.01953125 297.969726562 421.16015625 297.969726562 474.620117188 c 4
 297.969726562 588.139648438 232.450195312 613.719726562 172.479492188 613.719726562 c 4
 110.3203125 613.719726562 72.9599609375 582.26953125 64.5400390625 545.110351562 c 5
 22.919921875 554.98046875 l 5
 45.1201171875 611.370117188 114.479492188 633.509765625 171.580078125 633.509765625 c 4
 298.33984375 633.509765625 362.5703125 573.709960938 362.5703125 479.599609375 c 4xf8
 362.5703125 402.620117188 290.689453125 333.139648438 225.309570312 333.139648438 c 5
 285.099609375 333.139648438 373.33984375 276.240234375 373.33984375 179.809570312 c 4
 373.33984375 7.1298828125 219.189453125 -16.0703125 170.580078125 -16.0703125 c 4
 60.919921875 -16.0703125 -2.7099609375 39.76953125 0 102.040039062 c 5
 48.1494140625 95.4501953125 l 5xf4
EndSplineSet
Validated: 524321
EndChar

StartChar: four
Encoding: 10 52 34
Width: 460
VWidth: 0
Flags: W
HStem: 0 21G<280.06 344.609> 185.99 19.8594<25.5596 280.06 344.609 423.02> 599.68 20G<314.591 344.609>
VStem: 280.06 64.5498<0 185.99 205.87 524.73>
LayerCount: 2
Fore
SplineSet
280.059570312 205.849609375 m 1
 280.059570312 524.73046875 l 1
 25.5595703125 205.849609375 l 1
 280.059570312 205.849609375 l 1
344.609375 205.870117188 m 1
 423.01953125 205.870117188 l 1
 423.01953125 196.3203125 423.01953125 185.990234375 423.01953125 185.990234375 c 1
 344.609375 185.990234375 l 1
 344.609375 0 l 1
 280.059570312 0 l 1
 280.059570312 185.990234375 l 1
 0 185.990234375 l 1
 0 205.610351562 l 1
 0.169921875 205.870117188 l 1
 330.559570312 619.6796875 l 1
 344.609375 619.6796875 l 1
 344.609375 205.870117188 l 1
EndSplineSet
Validated: 524289
EndChar

StartChar: five
Encoding: 11 53 35
Width: 457
VWidth: 0
Flags: W
HStem: -16.0703 19.79<104.71 230.596> 388.22 20.0498<64.7785 219.875> 555.04 64.6396<40.6592 337.789>
VStem: 0 48.9092<43.33 90.4297> 20.7793 19.8799<391.57 555.04> 333.06 69.9795<107.042 301.275>
LayerCount: 2
Fore
SplineSet
146.19921875 354.639648438 m 5xe4
 146.029296875 354.549804688 145.859375 354.379882812 145.599609375 354.209960938 c 5
 145.689453125 354.209960938 145.689453125 354.299804688 145.689453125 354.379882812 c 4
 145.849609375 354.469726562 146.01953125 354.639648438 146.19921875 354.639648438 c 5xe4
48.9091796875 90.4296875 m 5xf4
 52.279296875 25.2197265625 103.349609375 3.73046875 166.6796875 3.7197265625 c 4
 295.619140625 3.7197265625 333.059570312 86.1796875 333.059570312 216.669921875 c 4
 333.059570312 378.240234375 196.889648438 388.219726562 143.609375 388.219726562 c 4
 93.169921875 388.219726562 62.349609375 381.169921875 20.779296875 360.25 c 5
 20.779296875 619.6796875 l 5
 353.969726562 619.6796875 l 5
 337.7890625 555.040039062 l 5
 40.6591796875 555.040039062 l 5
 40.6591796875 391.5703125 l 5xec
 74.6591796875 405.169921875 110.549804688 408.26953125 153.58984375 408.26953125 c 4
 220.299804688 408.26953125 403.0390625 387.009765625 403.0390625 210.8203125 c 4
 403.0390625 40.650390625 268.25 -16.0703125 166.6796875 -16.0703125 c 4
 70.6494140625 -16.0703125 5.5498046875 32.8896484375 0 95.8798828125 c 5
 48.9091796875 90.4296875 l 5xf4
EndSplineSet
Validated: 524293
EndChar

StartChar: six
Encoding: 12 54 36
Width: 435
VWidth: 0
Flags: W
HStem: -16.0703 20.3203<159.66 252.243> 377.9 19.4795<161.664 249.267> 620.04 13.4795<337.716 352.581>
VStem: 0 72.6699<116.533 333.153> 329.46 64.5<92.5871 299.897>
LayerCount: 2
Fore
SplineSet
210.76953125 4.25 m 4
 295.349609375 4.25 329.459960938 101.9296875 329.459960938 189.58984375 c 4
 329.459960938 270.639648438 301.729492188 377.900390625 205.819335938 377.900390625 c 4
 113.819335938 377.900390625 72.669921875 276.530273438 72.669921875 191.08984375 c 4
 72.669921875 83.1396484375 118.149414062 4.25 210.76953125 4.25 c 4
208.649414062 397.379882812 m 4
 340.370117188 397.379882812 393.950195312 293.309570312 393.959960938 201.950195312 c 4
 393.959960938 36.2197265625 284.91015625 -16.0703125 203.58984375 -16.0703125 c 4
 110.509765625 -16.0703125 0 40.9404296875 0 257.330078125 c 4
 0 478.349609375 195.349609375 598.23046875 329.129882812 628.709960938 c 4
 335.219726562 630.08984375 344.75 632.23046875 350.849609375 633.51953125 c 5
 352.479492188 627.080078125 354.279296875 620.040039062 354.279296875 620.040039062 c 5
 237.849609375 584.150390625 90.16015625 523.08984375 63.279296875 312.290039062 c 5
 72.6396484375 335.129882812 122.009765625 397.379882812 208.649414062 397.379882812 c 4
EndSplineSet
Validated: 524289
EndChar

StartChar: seven
Encoding: 13 55 37
Width: 396
VWidth: 0
Flags: W
HStem: 555.02 64.6504<0.120117 299.62>
LayerCount: 2
Fore
SplineSet
347.740234375 619.6796875 m 1
 85.8603515625 -16.0703125 l 1
 85.8603515625 -16.0703125 72.6904296875 -10.1298828125 67.7001953125 -7.98046875 c 1
 299.620117188 555.01953125 l 1
 -14 555.01953125 l 1
 0.1201171875 619.669921875 l 1
 347.740234375 619.669921875 l 1
 347.740234375 619.6796875 l 1
EndSplineSet
Validated: 524293
EndChar

StartChar: eight
Encoding: 14 56 38
Width: 407
VWidth: 0
Flags: W
HStem: -16.0703 19.8008<132.31 215.672> 613.81 19.71<123.127 207.906>
VStem: -6.62988 64.6299<58.1816 211.514 452.553 550.039> 270.48 53.8799<436.899 569.999> 275.48 64.6201<63.4393 182.718>
LayerCount: 2
Fore
SplineSet
192.860351562 337.209960938 m 5xf0
 295.790039062 256.75 340.110351562 214.150390625 340.100585938 136.76953125 c 4xe8
 340.100585938 58.5400390625 272.98046875 -16.0703125 163.680664062 -16.0703125 c 4
 50.080078125 -16.0703125 -6.6298828125 61.8203125 -6.6298828125 130.41015625 c 4
 -6.6298828125 209.849609375 38.1201171875 251.41015625 119.620117188 315.099609375 c 5
 10.83984375 402.450195312 0 433 0 487.049804688 c 4
 0 558.48046875 51.810546875 633.51953125 164.120117188 633.51953125 c 4
 263.33984375 633.51953125 324.360351562 571.809570312 324.360351562 506.150390625 c 4
 324.360351562 445.219726562 293.459960938 415.700195312 192.860351562 337.209960938 c 5xf0
64.5400390625 514.41015625 m 4
 64.5400390625 463.889648438 75.900390625 439.01953125 177.530273438 350.459960938 c 5
 249.140625 414.5703125 270.48046875 447.790039062 270.48046875 501.41015625 c 4xf0
 270.48046875 561.309570312 228.049804688 613.809570312 164.970703125 613.809570312 c 4
 98.9599609375 613.809570312 64.5400390625 558.129882812 64.5400390625 514.41015625 c 4
170.740234375 3.73046875 m 4
 231.669921875 3.73046875 275.48046875 50.7197265625 275.48046875 106.139648438 c 4xe8
 275.48046875 175.25 247.25 203.610351562 134.940429688 301.9296875 c 5
 87.6904296875 258.8203125 58 231.01953125 58 135.3203125 c 4
 58 45.4697265625 124.870117188 3.73046875 170.740234375 3.73046875 c 4
EndSplineSet
Validated: 524321
EndChar

StartChar: nine
Encoding: 15 57 39
Width: 447
VWidth: 0
Flags: W
HStem: 223.4 19.2695<143.517 230.386> 613.24 20.2793<140.576 232.391>
VStem: 0 63.9902<320.042 525.643> 318.66 72.04<324.644 504.657>
LayerCount: 2
Fore
SplineSet
186.610351562 242.669921875 m 4
 277.860351562 242.669921875 318.66015625 343.200195312 318.66015625 427.940429688 c 4
 318.66015625 535 273.55078125 613.240234375 181.700195312 613.240234375 c 4
 97.8203125 613.240234375 63.990234375 516.370117188 63.990234375 429.4296875 c 4
 63.990234375 349.040039062 91.5 242.669921875 186.610351562 242.669921875 c 4
188.80078125 633.51953125 m 4
 281.200195312 633.51953125 390.709960938 583.620117188 390.700195312 362.299804688 c 4
 390.700195312 155.879882812 225.919921875 51.73046875 135.8203125 16.990234375 c 4
 100.650390625 3.4501953125 45.1298828125 -16.0498046875 45.1298828125 -16.0498046875 c 5
 45.1298828125 -16.0498046875 41.640625 -3.7900390625 39.7705078125 2.9404296875 c 5
 44.6201171875 4.3896484375 50.419921875 6.169921875 52.970703125 6.9404296875 c 6
 52.970703125 6.9404296875 165.640625 39.2998046875 236.830078125 108.530273438 c 4
 274.379882812 144.969726562 308.440429688 201.690429688 328.030273438 307.709960938 c 5
 318.66015625 285.059570312 269.690429688 223.400390625 183.770507812 223.400390625 c 4
 53.220703125 223.400390625 0 326.610351562 0 417.129882812 c 4
 0 581.5703125 108.240234375 633.51953125 188.80078125 633.51953125 c 4
EndSplineSet
Validated: 524321
EndChar

StartChar: colon
Encoding: 16 58 40
Width: 185
VWidth: 0
Flags: W
HStem: -16.0596 108.119<10.7385 97.3806> 327.82 108.12<10.7385 97.3806>
VStem: 0 108.119<-5.32105 81.3179 338.562 425.202>
LayerCount: 2
Fore
SplineSet
54.0595703125 327.8203125 m 0
 24.19921875 327.8203125 0 352.030273438 0 381.879882812 c 0
 0 411.740234375 24.19921875 435.940429688 54.0595703125 435.940429688 c 0
 83.919921875 435.940429688 108.119140625 411.740234375 108.119140625 381.879882812 c 0
 108.119140625 352.01953125 83.919921875 327.8203125 54.0595703125 327.8203125 c 0
54.0595703125 92.0595703125 m 0
 83.919921875 92.0595703125 108.119140625 67.849609375 108.119140625 38 c 0
 108.119140625 8.1396484375 83.919921875 -16.0595703125 54.0595703125 -16.0595703125 c 0
 24.19921875 -16.0595703125 0 8.1396484375 0 38 c 0
 0 67.8603515625 24.19921875 92.0595703125 54.0595703125 92.0595703125 c 0
EndSplineSet
Validated: 524289
EndChar

StartChar: semicolon
Encoding: 17 59 41
Width: 185
VWidth: 0
Flags: W
HStem: -16.0498 108.1<10.7439 76.6411> 327.86 108.08<10.7375 97.3426>
VStem: 0 108.1<-5.1849 81.3059 338.598 425.203>
LayerCount: 2
Fore
SplineSet
108.099609375 38 m 0
 108.099609375 18.0302734375 107.669921875 7.48046875 101.009765625 -12.16015625 c 0
 91.41015625 -40.349609375 62.9599609375 -55.23046875 30.009765625 -73.73046875 c 1
 27.58984375 -69.150390625 23.1796875 -60.9296875 20.3193359375 -55.66015625 c 1
 26.7197265625 -52.5498046875 36.580078125 -47.7001953125 38.3095703125 -46.83984375 c 0
 50.419921875 -40.5302734375 68.1396484375 -26.6904296875 76.9697265625 -10.9501953125 c 1
 69.9697265625 -14.150390625 62.26953125 -16.0498046875 54.0498046875 -16.0498046875 c 0
 24.2197265625 -16.0498046875 0 8.16015625 0 38 c 0
 0 67.83984375 24.2099609375 92.0498046875 54.0498046875 92.0498046875 c 0
 83.8896484375 92.0498046875 108.099609375 67.830078125 108.099609375 38 c 0
54.0400390625 327.860351562 m 0
 24.2001953125 327.860351562 0 352.059570312 0 381.900390625 c 0
 0 411.740234375 24.189453125 435.940429688 54.0400390625 435.940429688 c 0
 83.8798828125 435.940429688 108.080078125 411.75 108.080078125 381.900390625 c 0
 108.080078125 352.059570312 83.8896484375 327.860351562 54.0400390625 327.860351562 c 0
EndSplineSet
Validated: 524289
EndChar

StartChar: question
Encoding: 18 63 42
Width: 407
VWidth: 0
Flags: W
HStem: -16.0703 70.0898<126.174 190.756> 604.77 28.7402<107.731 230.166>
VStem: 123.42 70.0898<-13.3162 51.2657> 148.53 19.7891<144.65 198.503>
LayerCount: 2
Fore
SplineSet
346.450195312 496.51953125 m 0xd0
 346.450195312 414.25 308.759765625 381.900390625 251.450195312 316.41015625 c 0
 197.41015625 254.540039062 168.319335938 198.51953125 168.319335938 144.650390625 c 1
 148.530273438 144.650390625 l 1
 148.530273438 196.709960938 169.349609375 254.01953125 192.5 289.129882812 c 0
 244.559570312 367.950195312 261.4296875 380.259765625 274.58984375 432.150390625 c 0
 285.780273438 476.209960938 287.240234375 516.139648438 273.389648438 548.580078125 c 0
 257.899414062 584.639648438 220.469726562 604.76953125 167.290039062 604.76953125 c 0
 111.870117188 604.76953125 53.609375 575.169921875 13 476.549804688 c 1
 13 476.549804688 5.080078125 479.389648438 -0.509765625 481.370117188 c 1
 1.2998046875 486.620117188 4.4794921875 495.400390625 7.3193359375 502.709960938 c 0
 44.580078125 599.610351562 106.01953125 633.509765625 167.120117188 633.509765625 c 0
 280.450195312 633.51953125 346.450195312 569.919921875 346.450195312 496.51953125 c 0xd0
158.469726562 54.01953125 m 0
 177.830078125 54.01953125 193.51953125 38.330078125 193.509765625 18.98046875 c 0
 193.509765625 -0.3798828125 177.819335938 -16.0703125 158.469726562 -16.0703125 c 0
 139.109375 -16.0703125 123.419921875 -0.3798828125 123.419921875 18.98046875 c 0xe0
 123.419921875 38.330078125 139.109375 54.01953125 158.469726562 54.01953125 c 0
EndSplineSet
Validated: 524321
EndChar

StartChar: a
Encoding: 45 97 43
Width: 405
VWidth: 0
Flags: W
HStem: 0 21G<253.189 317.74> 211.26 19.9102<155.2 253.02>
VStem: 253.02 64.6299<0 59.5596 77.8665 211.26 231.17 336.34>
LayerCount: 2
Fore
SplineSet
25.2998046875 369 m 1
 53.5595703125 430.780273438 155.459960938 457.990234375 251.290039062 415.08984375 c 0
 319.349609375 384.620117188 317.649414062 336.33984375 317.649414062 336.33984375 c 1
 317.649414062 97.8603515625 l 1
 317.740234375 0 l 1
 253.189453125 0 l 1
 253.189453125 59.5595703125 l 1
 201.799804688 -5.0703125 164.419921875 -15.830078125 113.469726562 -15.830078125 c 0
 21.3896484375 -15.830078125 -22.25 58.1796875 11.2294921875 129.870117188 c 0
 44.7998046875 201.650390625 141.479492188 231.169921875 253.01953125 231.169921875 c 1
 253.01953125 231.169921875 253.01953125 261.120117188 253.01953125 311.900390625 c 0
 253.01953125 344 245.969726562 379.080078125 211.709960938 398.299804688 c 0
 187.049804688 412.129882812 102.009765625 439.709960938 66 353.759765625 c 1
 25.2998046875 369 l 1
134.290039062 10.5 m 0
 268.0703125 25.7197265625 253.099609375 185.360351562 253.099609375 211.259765625 c 1
 227.969726562 211.259765625 177.599609375 214.129882812 117.120117188 188.969726562 c 0
 61.01953125 165.629882812 58.7802734375 97.099609375 67.3896484375 58.7998046875 c 0
 75.0498046875 24.5498046875 94.4599609375 5.9697265625 134.290039062 10.5 c 0
EndSplineSet
Validated: 524321
EndChar

StartChar: b
Encoding: 46 98 44
Width: 361
VWidth: 0
Flags: W
HStem: -16.0703 35.1006<117.944 197.173> 0 21G<0 64.4707> 397.05 36.71<123.015 202.027> 599.68 20G<0 64.4707>
VStem: 0 64.4707<0 59.5898 62.0057 360.14 366.88 619.68> 248.98 64.4102<81.5446 342.625>
LayerCount: 2
Fore
SplineSet
160.090820312 397.049804688 m 0xbc
 126.020507812 397.049804688 89.330078125 372.860351562 64.48046875 333.75 c 1
 64.48046875 93.990234375 l 1
 86.5400390625 53.76953125 118.040039062 19.0302734375 156.73046875 19.0302734375 c 0
 216.73046875 19.0302734375 248.98046875 107.4296875 248.98046875 201.98046875 c 0
 248.98046875 316.940429688 222.959960938 397.049804688 160.090820312 397.049804688 c 0xbc
186.870117188 433.759765625 m 0
 251.940429688 433.240234375 313.400390625 368.599609375 313.390625 201.959960938 c 0
 313.390625 92.3798828125 288.090820312 -16.0703125 181.270507812 -16.0703125 c 0xbc
 119.390625 -16.0703125 83.060546875 25.849609375 64.470703125 59.58984375 c 1
 64.470703125 0 l 1
 0 0 l 1x7c
 0 619.6796875 l 1
 64.470703125 619.6796875 l 1
 64.470703125 366.879882812 l 1
 94.6806640625 402.940429688 138.840820312 434.099609375 186.870117188 433.759765625 c 0
EndSplineSet
Validated: 524321
EndChar

StartChar: c
Encoding: 47 99 45
Width: 432
VWidth: 0
Flags: W
HStem: -16.0703 19.2803<160.077 265.197> 417.08 18.8604<166.572 265.305>
VStem: -4 67.6309<115.218 321.974>
LayerCount: 2
Fore
SplineSet
373.970703125 122.83984375 m 1
 366.270507812 47.849609375 306.850585938 -16.0703125 208.510742188 -16.0703125 c 0
 90.0107421875 -16.0703125 -4 85.2099609375 -4 217.98046875 c 0
 -4 410.080078125 152.55078125 435.940429688 213.440429688 435.940429688 c 0
 264.73046875 435.940429688 333.3203125 421.5 365.580078125 365.879882812 c 1
 330.640625 345.809570312 l 1
 298.900390625 396.5 265.860351562 417.080078125 215.340820312 417.080078125 c 0
 98.9208984375 417.080078125 63.630859375 293.48046875 63.630859375 217.969726562 c 0
 63.630859375 119.280273438 104.280273438 3.2099609375 207.990234375 3.2099609375 c 0
 276.490234375 3.2099609375 309.270507812 33.48046875 328.8203125 65.1396484375 c 0
 336.170898438 76.900390625 346.98046875 102.360351562 352 122.830078125 c 1
 373.970703125 122.830078125 l 1
 373.970703125 122.83984375 l 1
EndSplineSet
Validated: 524293
EndChar

StartChar: d
Encoding: 48 100 46
Width: 362
VWidth: 0
Flags: W
HStem: -16.0703 35.1104<113.769 193.027> 0 21G<246.51 310.98> 397.06 36.7002<108.961 187.963> 599.68 20G<246.52 310.98>
VStem: -2.5 64.5<81.0247 343.246> 246.52 64.4609<0 59.5898 94 360.146 366.88 619.68>
LayerCount: 2
Fore
SplineSet
246.5 94 m 1xbc
 246.509765625 94 l 1
 246.509765625 333.75 l 1
 221.639648438 372.870117188 184.959960938 397.059570312 150.889648438 397.059570312 c 0
 88.01953125 397.059570312 62 316.950195312 62 201.990234375 c 0
 62 107.4296875 94.25 19.0400390625 154.25 19.0400390625 c 0
 192.940429688 19.0400390625 224.440429688 53.7802734375 246.5 94 c 1xbc
246.51953125 619.6796875 m 1
 310.98046875 619.6796875 l 1
 310.98046875 0 l 1
 246.509765625 0 l 1x7c
 246.509765625 59.58984375 l 1
 227.919921875 25.849609375 191.58984375 -16.0703125 129.620117188 -16.0703125 c 0
 22.8896484375 -16.0703125 -2.5 92.4697265625 -2.5 201.959960938 c 0
 -2.5 368.599609375 59.0498046875 433.240234375 124.120117188 433.759765625 c 0
 172.150390625 434.190429688 216.219726562 402.940429688 246.51953125 366.879882812 c 1
 246.51953125 619.6796875 l 1
EndSplineSet
Validated: 524321
EndChar

StartChar: e
Encoding: 49 101 47
Width: 433
VWidth: 0
Flags: W
HStem: -16.0703 20.0703<146.316 232.467> 245.84 19.9902<62.0107 287.79> 413.24 22.71<129.756 223.503>
VStem: 287.79 64.3203<265.83 353.233> 325.04 25.5107<105.143 155.88>
LayerCount: 2
Fore
SplineSet
176.490234375 413.240234375 m 0xf0
 94.140625 413.240234375 64.98046875 326.190429688 62 265.830078125 c 1
 287.790039062 265.830078125 l 1
 285.240234375 331.919921875 261.200195312 413.240234375 176.490234375 413.240234375 c 0xf0
328.240234375 155.879882812 m 0
 352.709960938 155.879882812 l 1
 352.190429688 150.690429688 351.41015625 145.58984375 350.55078125 140.66015625 c 0xe8
 334.470703125 51.91015625 278.510742188 -16.0703125 189.590820312 -16.0703125 c 0
 133.200195312 -16.0703125 85.8203125 -6.75 42.400390625 56.5595703125 c 0
 -8.7197265625 131.200195312 -6.919921875 253.530273438 18.6806640625 314.080078125 c 0
 59.0703125 409.5703125 128.350585938 435.950195312 177.5703125 435.950195312 c 0
 247.280273438 435.950195312 352.110351562 408.530273438 352.110351562 245.83984375 c 1xf0
 62.0107421875 245.83984375 l 1
 59.080078125 144.650390625 83.5400390625 4 190.450195312 4 c 0
 258.780273438 4 308.340820312 71.3798828125 325.040039062 140.139648438 c 0xe8
 325.390625 141.610351562 327.030273438 149.650390625 328.240234375 155.879882812 c 0
EndSplineSet
Validated: 524321
EndChar

StartChar: f
Encoding: 50 102 48
Width: 275
VWidth: 0
Flags: W
HStem: 0 21G<68.9654 133.38> 413.54 19.8701<0 68.8799 133.38 216.189> 613.4 20.1191<157.285 225.592>
VStem: 68.9697 64.4102<0 413.54 433.41 595.023>
LayerCount: 2
Fore
SplineSet
267.689453125 564.509765625 m 1
 234.939453125 602.940429688 216.319335938 613.400390625 185.409179688 613.400390625 c 0
 139.229492188 613.400390625 133.379882812 564.549804688 133.379882812 509.169921875 c 2
 133.379882812 433.41015625 l 1
 216.189453125 433.41015625 l 1
 216.189453125 413.540039062 l 1
 133.379882812 413.540039062 l 1
 133.379882812 0 l 1
 68.9697265625 0 l 1
 68.8798828125 413.540039062 l 1
 0 413.540039062 l 1
 0 433.41015625 l 1
 68.8798828125 433.41015625 l 1
 68.8798828125 509.169921875 l 2
 68.8798828125 590.08984375 102.509765625 633.51953125 182.739257812 633.51953125 c 0
 250.2890625 633.51953125 287.469726562 607.709960938 301.529296875 585.169921875 c 1
 267.689453125 564.509765625 l 1
EndSplineSet
Validated: 524289
EndChar

StartChar: g
Encoding: 51 103 49
Width: 425
VWidth: 0
Flags: W
HStem: -200 62.5596<74.6988 284.452> 17.8896 61.4307<54.3004 243.035 243.12 330.835> 136.81 19.1309<139.79 219.56> 417 18.9502<135.309 206.513> 423.55 41.4199<301.296 359.931>
VStem: 0 18.8701<-96.3186 -44.0901> 23.9502 61.8506<196.331 369.002> 266.74 61.7803<195.424 365.637> 364.7 19.46<-77.7593 -17.7088>
LayerCount: 2
Fore
SplineSet
264.260742188 408.370117188 m 1xf780
 294.900390625 446.33984375 327.440429688 467.26953125 361.150390625 464.969726562 c 1
 359.930664062 423.549804688 l 1xef80
 329.510742188 422 302.900390625 416.280273438 279.760742188 396.900390625 c 1
 279.760742188 396.900390625 328.520507812 363.580078125 328.520507812 289.120117188 c 0
 328.520507812 167.030273438 258.220703125 136.809570312 179.419921875 136.809570312 c 0
 138.58984375 136.809570312 99.5107421875 144.919921875 77.80078125 157.940429688 c 1
 32.3505859375 109.709960938 23.970703125 79.3203125 98.1201171875 79.3203125 c 2
 236.3203125 79.3203125 l 2
 325.629882812 79.3203125 384.16015625 38.259765625 384.16015625 -39.9501953125 c 0
 384.16015625 -143.76953125 274.959960938 -200 186.850585938 -200 c 0
 75.2001953125 -200 0 -150.16015625 0 -86.8603515625 c 0
 0 -49.1103515625 19.0302734375 -15.080078125 60.91015625 18.98046875 c 1
 -38.33984375 32.400390625 13.5703125 118.290039062 60.8701171875 167.299804688 c 1
 60.8701171875 167.299804688 23.9501953125 206.879882812 23.9501953125 283.080078125 c 0
 23.9501953125 382.900390625 91.3505859375 435.950195312 167.680664062 435.950195312 c 0
 194.25 435.950195312 232.80078125 427.280273438 264.260742188 408.370117188 c 1xf780
170.970703125 417 m 0xf780
 115.940429688 417 85.80078125 364.1796875 85.80078125 295.240234375 c 0
 85.80078125 198.549804688 124.530273438 155.940429688 178.690429688 155.940429688 c 0
 255.209960938 155.940429688 266.740234375 228.41015625 266.740234375 283.080078125 c 0
 266.740234375 356.540039062 225.48046875 417 170.970703125 417 c 0xf780
188.740234375 -137.440429688 m 0
 272.91015625 -137.440429688 364.690429688 -109.51953125 364.700195312 -47.599609375 c 0
 364.700195312 5.9697265625 304.5703125 17.41015625 243.120117188 17.41015625 c 2
 243.120117188 17.41015625 125.810546875 17.8896484375 77.330078125 17.8896484375 c 1
 37.73046875 -15.849609375 18.8701171875 -49.1201171875 18.8701171875 -68.2998046875 c 0
 18.8701171875 -114.530273438 72.5302734375 -137.440429688 188.740234375 -137.440429688 c 0
EndSplineSet
Validated: 524321
EndChar

StartChar: h
Encoding: 52 104 50
Width: 435
VWidth: 0
Flags: W
HStem: 0 21G<0 64.46 301.133 365.689> 411.66 22.1201<143.677 250.131> 599.68 20G<0 64.46>
VStem: 0 64.46<0 357.062 375.6 619.68> 301.14 64.5498<0 370.172>
LayerCount: 2
Fore
SplineSet
365.689453125 0 m 1
 301.139648438 0 l 1
 301.049804688 289.790039062 l 2
 301.049804688 358.639648438 277.729492188 411.66015625 197.4296875 411.66015625 c 0
 129.1796875 411.66015625 64.4599609375 360.799804688 64.4599609375 298.400390625 c 2
 64.4599609375 0 l 1
 0 0 l 1
 0 619.6796875 l 1
 64.4599609375 619.6796875 l 1
 64.4599609375 375.599609375 l 1
 97.169921875 423.799804688 173.849609375 433.780273438 201.8203125 433.780273438 c 0
 272.649414062 433.780273438 365.609375 397.540039062 365.609375 297.790039062 c 2
 365.689453125 0 l 1
EndSplineSet
Validated: 524289
EndChar

StartChar: i
Encoding: 53 105 51
Width: 155
VWidth: 0
Flags: W
HStem: 0 21G<0 66.3809> 413.56 20G<0 66.3809> 551.36 82.1592<-2.97146 69.2722>
VStem: -7.92969 82.1602<556.318 628.562> 0 66.3809<0 433.56>
LayerCount: 2
Fore
SplineSet
0 0 m 1xe8
 0 433.559570312 l 1
 66.380859375 433.559570312 l 1
 66.380859375 0 l 1
 0 0 l 1xe8
-7.9296875 592.440429688 m 0xf0
 -7.9296875 615.127929688 10.462890625 633.51953125 33.150390625 633.51953125 c 0
 55.837890625 633.51953125 74.23046875 615.127929688 74.23046875 592.440429688 c 0
 74.23046875 569.751953125 55.837890625 551.360351562 33.150390625 551.360351562 c 0
 10.462890625 551.360351562 -7.9296875 569.751953125 -7.9296875 592.440429688 c 0xf0
EndSplineSet
Validated: 524289
EndChar

StartChar: j
Encoding: 54 106 52
Width: 258
VWidth: 0
Flags: W
HStem: -200 20.4502<0.325391 65.2362> 553.55 79.9697<88.8567 160.071>
VStem: -84.6699 44.3604<-154.342 -126.124> 84.4902 79.96<557.931 629.14> 91.8301 64.7002<-163.562 438.88>
LayerCount: 2
Fore
SplineSet
124.470703125 553.549804688 m 0xf0
 102.350585938 553.549804688 84.490234375 571.490234375 84.490234375 593.540039062 c 0
 84.490234375 615.58984375 102.340820312 633.51953125 124.470703125 633.51953125 c 0
 146.520507812 633.51953125 164.450195312 615.58984375 164.450195312 593.540039062 c 0
 164.450195312 571.490234375 146.520507812 553.549804688 124.470703125 553.549804688 c 0xf0
35.9306640625 -200 m 0
 -30.419921875 -200 -80.080078125 -168.849609375 -84.669921875 -127.809570312 c 1
 -40.3095703125 -117.129882812 l 1
 -30.3798828125 -151.290039062 -0.1201171875 -179.549804688 36.3603515625 -179.549804688 c 0
 83.98046875 -179.549804688 91.830078125 -127.26953125 91.830078125 -79.0498046875 c 2
 92 438.879882812 l 1
 156.530273438 438.879882812 l 1
 156.530273438 -79.0498046875 l 2xe8
 156.530273438 -159.030273438 128.30078125 -200 35.9306640625 -200 c 0
EndSplineSet
Validated: 524289
EndChar

StartChar: k
Encoding: 55 107 53
Width: 380
VWidth: 0
Flags: W
HStem: 0 21G<0.0869441 64.5498 243.63 346.59> 401.04 20G<247.574 293.66> 599.68 20G<0 64.5498>
VStem: 0.0898438 64.46<0 201.31 229.88 619.68>
LayerCount: 2
Fore
SplineSet
125.919921875 259.919921875 m 1
 346.58984375 0 l 1
 260.959960938 0 l 1
 76.599609375 212.759765625 l 1
 64.5498046875 201.309570312 l 1
 64.5498046875 0 l 1
 0.08984375 0 l 1
 0 619.6796875 l 1
 64.5498046875 619.6796875 l 1
 64.5498046875 229.879882812 l 1
 268.959960938 421.040039062 l 1
 293.66015625 421.040039062 l 1
 125.919921875 259.919921875 l 1
EndSplineSet
Validated: 524289
EndChar

StartChar: l
Encoding: 56 108 54
Width: 152
VWidth: 0
Flags: W
HStem: 0 21G<0 64.4609> 599.68 20G<0 64.4609>
VStem: 0 64.4609<0 619.68>
LayerCount: 2
Fore
SplineSet
0 0 m 1
 0 619.6796875 l 1
 64.4609375 619.6796875 l 1
 64.4609375 0 l 1
 0 0 l 1
EndSplineSet
Validated: 524289
EndChar

StartChar: m
Encoding: 57 109 55
Width: 656
VWidth: 0
Flags: W
HStem: 0 21G<0 64.7891 278.529 343.399 525.733 590.529> 401.04 20G<0 64.7891> 411.38 24.5703<134.595 226.174 402.483 486.52>
VStem: 0 64.7891<0 365.122 373.41 421.04> 278.529 64.8701<0 364.73> 525.739 64.79<0 365.773>
LayerCount: 2
Fore
SplineSet
590.529296875 282.849609375 m 2xbc
 590.529296875 0 l 1
 525.739257812 0 l 1
 525.649414062 282.849609375 l 2
 525.649414062 373.41015625 493.649414062 411.379882812 448.149414062 411.379882812 c 0
 396.25 411.379882812 343.399414062 371.940429688 343.399414062 300.3203125 c 2
 343.399414062 0 l 1
 278.529296875 0 l 1
 278.529296875 293.23046875 l 2
 278.529296875 364.16015625 242.549804688 411.379882812 174.729492188 411.379882812 c 0xbc
 121.7890625 411.379882812 64.7890625 364.5 64.7890625 306.290039062 c 2
 64.7890625 0 l 1
 0 0 l 1
 0 421.040039062 l 1
 64.7890625 421.040039062 l 1xdc
 64.7890625 373.41015625 l 1
 103.799804688 414.9296875 147.139648438 435.950195312 190.559570312 435.950195312 c 0
 236.139648438 435.950195312 288.58984375 417.849609375 329.389648438 355.419921875 c 1
 360.7890625 409.5703125 410.1796875 435.950195312 455.6796875 435.950195312 c 0
 497.369140625 435.950195312 553.25 406.110351562 578.509765625 348.0703125 c 0
 584.729492188 333.879882812 590.529296875 302.91015625 590.529296875 282.849609375 c 2xbc
EndSplineSet
Validated: 524289
EndChar

StartChar: n
Encoding: 58 110 56
Width: 420
VWidth: 0
Flags: W
HStem: 0 21G<0 64.79 278.53 343.4> 401.04 20G<0 64.79> 413.63 22.3203<133.401 224.43>
VStem: 0 64.79<0 368.102 376.7 421.04> 278.53 64.8701<0 364.777>
LayerCount: 2
Fore
SplineSet
343.400390625 276.620117188 m 2xb8
 343.400390625 0 l 1
 278.530273438 0 l 1
 278.530273438 296.509765625 l 2
 278.530273438 367.530273438 242.549804688 413.629882812 174.73046875 413.629882812 c 0xb8
 121.790039062 413.629882812 64.7900390625 367.790039062 64.7900390625 309.66015625 c 2
 64.7900390625 0 l 1
 0 0 l 1
 0 421.040039062 l 1
 64.7900390625 421.040039062 l 1xd8
 64.7900390625 376.700195312 l 1
 103.799804688 418.219726562 147.140625 435.950195312 190.560546875 435.950195312 c 0
 236.140625 435.950195312 343.400390625 410.33984375 343.400390625 276.620117188 c 2xb8
EndSplineSet
Validated: 524289
EndChar

StartChar: o
Encoding: 59 111 57
Width: 421
VWidth: 0
Flags: W
HStem: -16.0703 19.96<154.069 223.874> 422.28 13.6699<153.102 220.719>
VStem: 0 64.7305<102.063 321.977> 311.36 64.2002<102.098 328.123>
LayerCount: 2
Fore
SplineSet
188.049804688 435.950195312 m 0
 304.700195312 435.950195312 375.560546875 347.950195312 375.560546875 218.559570312 c 0
 375.560546875 121.120117188 331.75 -16.0703125 182.98046875 -16.0703125 c 0
 53.7900390625 -16.0703125 0 108.889648438 0 218.559570312 c 0
 0 312.870117188 53.580078125 435.950195312 188.049804688 435.950195312 c 0
64.73046875 216.76953125 m 0
 64.73046875 111.650390625 109.770507812 3.8896484375 193.990234375 3.8896484375 c 0
 257.459960938 3.8896484375 311.360351562 110.459960938 311.360351562 216.76953125 c 0
 311.360351562 326.309570312 267.629882812 422.280273438 186.5703125 422.280273438 c 0
 102.620117188 422.280273438 64.73046875 313.049804688 64.73046875 216.76953125 c 0
EndSplineSet
Validated: 524289
EndChar

StartChar: p
Encoding: 60 112 58
Width: 406
VWidth: 0
Flags: W
HStem: -200 21G<0 63.0605> -4.00977 32.1299<99.1602 227.903> 400.04 35.9102<102.68 226.875> 401.04 20G<0 63.0605>
VStem: 0 63.0801<-200 43.4697 53.4791 376.939 386.11 421.04> 289.08 63.6602<103.213 327.676>
LayerCount: 2
Fore
SplineSet
289.080078125 201.219726562 m 0xec
 289.080078125 292.919921875 265.959960938 400.040039062 171.810546875 400.040039062 c 0
 112.990234375 400.040039062 90.2705078125 385.83984375 63.060546875 357.120117188 c 1
 63.080078125 75.330078125 l 1
 86.669921875 43.6201171875 120.8203125 28.1201171875 168.310546875 28.1201171875 c 0
 220.639648438 28.1201171875 289.080078125 53.3701171875 289.080078125 201.219726562 c 0xec
172.669921875 435.950195312 m 0
 262.830078125 435.950195312 352.740234375 375.25 352.740234375 201.240234375 c 0
 352.740234375 66.7099609375 254.919921875 -4.009765625 169.719726562 -4.009765625 c 0
 118.370117188 -4.009765625 86.3701171875 12.23046875 63.060546875 43.4697265625 c 1
 63.060546875 -200 l 1
 0 -200 l 1
 0 421.040039062 l 1
 63.060546875 421.040039062 l 1xdc
 63.060546875 386.110351562 l 1
 93.3701171875 422.559570312 134.870117188 435.950195312 172.669921875 435.950195312 c 0
EndSplineSet
Validated: 524289
EndChar

StartChar: q
Encoding: 61 113 59
Width: 424
VWidth: 0
Flags: W
HStem: -200 21G<289.6 352.74> -4.00977 32.1299<124.831 253.566> 400.04 35.9102<125.865 250.062> 401.04 20G<289.689 352.74>
VStem: 0 63.6494<103.213 327.676> 289.649 63.0908<-200 43.4697 53.4749 376.939 386.11 421.04>
LayerCount: 2
Fore
SplineSet
180.919921875 400.040039062 m 0xec
 86.76953125 400.040039062 63.6494140625 292.919921875 63.6494140625 201.219726562 c 0
 63.6494140625 53.3701171875 132.08984375 28.1201171875 184.419921875 28.1201171875 c 0
 231.91015625 28.1201171875 266.059570312 43.6103515625 289.649414062 75.330078125 c 1
 289.669921875 357.120117188 l 1
 262.459960938 385.83984375 239.75 400.040039062 180.919921875 400.040039062 c 0xec
289.689453125 421.040039062 m 1xdc
 352.740234375 421.040039062 l 1xdc
 352.740234375 -200 l 1
 289.599609375 -200 l 1
 289.599609375 43.4697265625 l 1
 266.360351562 12.240234375 234.370117188 -4.009765625 183.01953125 -4.009765625 c 0
 97.8203125 -4.009765625 0 66.7099609375 0 201.240234375 c 0
 0 375.25 89.919921875 435.950195312 180.080078125 435.950195312 c 0xec
 217.879882812 435.950195312 259.379882812 422.559570312 289.689453125 386.110351562 c 1
 289.689453125 421.040039062 l 1xdc
EndSplineSet
Validated: 524289
EndChar

StartChar: r
Encoding: 62 114 60
Width: 279
VWidth: 0
Flags: W
HStem: 0 21G<0 64.9102> 396.11 33.5293<138.703 235.66>
VStem: 0 64.9102<0 423.96>
LayerCount: 2
Fore
SplineSet
242.669921875 429.639648438 m 1
 235.66015625 396.110351562 l 1
 141.560546875 413.190429688 108.560546875 367.73046875 64.91015625 270.650390625 c 1
 64.91015625 0 l 1
 0 0 l 1
 0 423.959960938 l 1
 64.91015625 423.959960938 l 1
 64.91015625 315.459960938 l 1
 99 404.509765625 174.3203125 454.3203125 242.669921875 429.639648438 c 1
EndSplineSet
Validated: 524321
EndChar

StartChar: s
Encoding: 63 115 61
Width: 334
VWidth: 0
Flags: W
HStem: -16.0703 19.8799<100.393 187.747> 415.97 19.9805<94.9864 199.541>
VStem: 14.9697 41.4307<289.352 390.28> 241.41 39.0098<39.2851 146.569>
LayerCount: 2
Fore
SplineSet
280.419921875 101.8203125 m 0
 280.419921875 22.6796875 216.0703125 -16.0703125 146.870117188 -16.0703125 c 0
 83.1201171875 -16.0703125 36.849609375 19.740234375 9.8603515625 66.7001953125 c 1
 1.3798828125 106.5703125 0 140.389648438 0 140.389648438 c 1
 0 140.389648438 8.8203125 141.169921875 13.41015625 141.599609375 c 1
 14.1904296875 134.330078125 15.400390625 121.450195312 15.75 118.759765625 c 0
 22.669921875 66.259765625 79.0595703125 3.8095703125 145.580078125 3.8095703125 c 0
 181.129882812 3.8095703125 241.41015625 27.9404296875 241.41015625 97.66015625 c 0
 241.41015625 150.6796875 203.610351562 167.110351562 130.530273438 190.73046875 c 0
 39.9599609375 220.059570312 14.9697265625 271 14.9697265625 336.5703125 c 0
 14.9697265625 390.709960938 69.8095703125 435.950195312 143.5 435.950195312 c 0
 196.950195312 435.950195312 217.620117188 424.360351562 247.900390625 398.41015625 c 1
 258.190429688 373.669921875 257.669921875 324.459960938 257.669921875 324.459960938 c 1
 257.669921875 324.459960938 249.889648438 324.370117188 244.440429688 324.200195312 c 1
 243.919921875 331.209960938 242.879882812 343.830078125 242.360351562 346.51953125 c 0
 232.83984375 397.030273438 199.719726562 415.969726562 145.229492188 415.969726562 c 0
 98.259765625 415.969726562 56.400390625 397.290039062 56.400390625 340.459960938 c 0
 56.400390625 296.610351562 79.41015625 274.73046875 148.599609375 253.190429688 c 0
 235.790039062 226.110351562 280.419921875 181.139648438 280.419921875 101.8203125 c 0
EndSplineSet
Validated: 524321
EndChar

StartChar: t
Encoding: 64 116 62
Width: 327
VWidth: 0
Flags: W
HStem: -16.0703 26.8008<164.223 234.054> 415.95 19.9795<0 74.2807 140.21 240.551>
VStem: 75.1602 65.0498<29.6903 415.95> 126.37 13.8398<483.853 540.95>
LayerCount: 2
Fore
SplineSet
281.80078125 78.2998046875 m 2xe0
 281.80078125 28.8203125 257.23046875 -16.0703125 192.970703125 -16.0703125 c 0
 147.73046875 -16.0703125 119.790039062 -4.830078125 96.0908203125 29.6796875 c 0
 71.7900390625 65.1396484375 75.16015625 111.76953125 75.16015625 182.4296875 c 2xe0
 75.25 415.950195312 l 1
 0 415.950195312 l 1
 0 415.950195312 0 422.349609375 0 429.790039062 c 1
 23.0107421875 429.790039062 l 2
 70.060546875 429.790039062 126.370117188 454.110351562 126.370117188 518.030273438 c 2
 126.370117188 540.950195312 l 1
 134.5 540.950195312 140.209960938 540.950195312 140.209960938 540.950195312 c 1
 140.209960938 435.9296875 l 1xd0
 240.55078125 435.9296875 l 1
 240.55078125 415.950195312 l 1
 140.209960938 415.950195312 l 1
 140.209960938 132.599609375 l 2
 140.209960938 53.9697265625 157.770507812 10.73046875 191.330078125 10.73046875 c 0
 233.540039062 10.73046875 247.290039062 33.0498046875 254.130859375 62.3701171875 c 0
 254.48046875 63.75 256.030273438 70.669921875 257.680664062 78.2802734375 c 1
 281.80078125 78.2802734375 l 1
 281.80078125 78.2998046875 l 2xe0
EndSplineSet
Validated: 524325
EndChar

StartChar: u
Encoding: 65 117 63
Width: 411
VWidth: 0
Flags: W
HStem: -16.0703 24.3604<122.257 203.228> 0 21G<277.311 341.801> 401.04 20G<0 64.5703 277.32 341.801>
VStem: 0 64.5703<71.3327 421.04> 277.32 64.4805<0 62.1904 65.3183 421.04>
LayerCount: 2
Fore
SplineSet
341.80078125 421.040039062 m 1xb8
 341.80078125 0 l 1
 277.310546875 0 l 1x78
 277.310546875 62.1904296875 l 1
 243.130859375 21.5498046875 209.900390625 -16.0703125 152.130859375 -16.0703125 c 0
 106.760742188 -16.0703125 0 28.7001953125 0 161.799804688 c 2
 0 421.040039062 l 1
 64.5703125 421.040039062 l 1
 64.5703125 142 l 2
 64.5703125 71.3203125 100.390625 8.2900390625 167.890625 8.2900390625 c 0
 220.580078125 8.2900390625 277.3203125 71.0498046875 277.3203125 128.91015625 c 2
 277.3203125 421.040039062 l 1
 341.80078125 421.040039062 l 1xb8
EndSplineSet
Validated: 524289
EndChar

StartChar: v
Encoding: 66 118 64
Width: 402
VWidth: 0
Flags: W
HStem: 401.04 20G<0 78.2552 321 347.42>
LayerCount: 2
Fore
SplineSet
326.9296875 421.040039062 m 1
 347.419921875 421.040039062 l 1
 218.729492188 -16.0703125 l 1
 170.26953125 -16.0703125 l 1
 0 421.040039062 l 1
 70.240234375 421.040039062 l 1
 217.780273438 52.8798828125 l 1
 326.9296875 421.040039062 l 1
EndSplineSet
Validated: 524289
EndChar

StartChar: w
Encoding: 67 119 65
Width: 605
VWidth: 0
Flags: W
HStem: 401.04 20G<0 78.0869 523.376 549.699>
LayerCount: 2
Fore
SplineSet
549.69921875 421.040039062 m 1
 421.099609375 -16.0703125 l 1
 372.629882812 -16.0703125 l 1
 284.919921875 209.200195312 l 1
 218.639648438 -16.0703125 l 1
 170.1796875 -16.0703125 l 1
 0 421.040039062 l 1
 70.0693359375 421.040039062 l 1
 217.689453125 52.7998046875 l 1
 303.76953125 343.48046875 l 1
 420.239257812 52.7998046875 l 1
 529.299804688 421.040039062 l 1
 549.69921875 421.040039062 l 1
EndSplineSet
Validated: 524289
EndChar

StartChar: x
Encoding: 68 120 66
Width: 452
VWidth: 0
Flags: W
HStem: 0 21G<0 39.6677 309.378 405.55> 401.04 20G<21.1699 115.449 323.861 363.46>
LayerCount: 2
Fore
SplineSet
226.100585938 247.440429688 m 1
 405.549804688 0 l 1
 323.780273438 0 l 1
 181.600585938 197.440429688 l 1
 23.669921875 0 l 1
 0 0 l 1
 168.08984375 212.58984375 l 1
 21.169921875 421.040039062 l 1
 101.040039062 421.040039062 l 1
 214.140625 264.049804688 l 1
 339.879882812 421.040039062 l 1
 363.459960938 421.040039062 l 1
 226.100585938 247.440429688 l 1
EndSplineSet
Validated: 524289
EndChar

StartChar: y
Encoding: 69 121 67
Width: 402
VWidth: 0
Flags: W
HStem: -200 19.5498<-12.312 69.1095> 401.04 20G<0 75.1567 330.631 358.57>
LayerCount: 2
Fore
SplineSet
33.2001953125 -200 m 0
 1.5595703125 -200 -36.66015625 -190.049804688 -58.740234375 -160.040039062 c 1
 -43.16015625 -148.200195312 l 1
 -20.48046875 -170.740234375 2.9794921875 -180.450195312 28.0703125 -180.450195312 c 0
 53.16015625 -180.450195312 72.91015625 -172.41015625 92.7001953125 -154.76953125 c 0
 117.030273438 -133.099609375 150.509765625 -48.0595703125 183.959960938 35.8095703125 c 1
 0 421.040039062 l 1
 64.740234375 421.040039062 l 1
 215.919921875 130.76953125 l 1
 339.120117188 421.030273438 l 1
 358.5703125 421.030273438 l 1
 345.240234375 388.080078125 321.389648438 328.969726562 315.349609375 313.5703125 c 0
 281.8203125 229.040039062 196.129882812 12.7900390625 162.9296875 -70.580078125 c 0
 153.16015625 -95.169921875 140.169921875 -129.9296875 122.5703125 -154.25 c 0
 98.7294921875 -187.190429688 61.25 -200 33.2001953125 -200 c 0
EndSplineSet
Validated: 524289
EndChar

StartChar: z
Encoding: 70 122 68
Width: 390
VWidth: 0
Flags: W
HStem: 0 19.8799<77.3691 322.75> 401.16 19.8799<0 226.609>
VStem: -9.21094 331.961
LayerCount: 2
Fore
SplineSet
322.75 19.7998046875 m 1
 322.75 0 l 1
 -9.2109375 0 l 1
 226.609375 401.16015625 l 1
 0 401.16015625 l 1
 0 421.040039062 l 1
 315.169921875 421.040039062 l 1
 77.369140625 19.8798828125 l 1
 322.75 19.7998046875 l 1
EndSplineSet
Validated: 524289
EndChar

StartChar: exclam
Encoding: 1 33 69
Width: 154
VWidth: 0
Flags: W
HStem: -16.0703 70.0898<-0.00564575 64.5762> 613.52 20G<0 64.6201>
VStem: -2.75977 70.0898<-13.3162 51.2657 405.154 633.52>
LayerCount: 2
Fore
SplineSet
64.6201171875 633.51953125 m 1
 64.6201171875 419.9296875 42.25 144.650390625 42.25 144.650390625 c 1
 22.3701171875 144.650390625 l 1
 22.3701171875 144.650390625 0 420.110351562 0 633.51953125 c 1
 64.6201171875 633.51953125 l 1
32.2900390625 54.01953125 m 0
 51.640625 54.01953125 67.330078125 38.330078125 67.330078125 18.98046875 c 0
 67.330078125 -0.3798828125 51.640625 -16.0703125 32.2900390625 -16.0703125 c 0
 12.9306640625 -16.0703125 -2.759765625 -0.3798828125 -2.759765625 18.98046875 c 0
 -2.759765625 38.330078125 12.9306640625 54.01953125 32.2900390625 54.01953125 c 0
EndSplineSet
Validated: 524289
EndChar

StartChar: emdash
Encoding: 73 8212 71
Width: 690
VWidth: 0
Flags: W
HStem: 183.729 64.5703<3.74023 591>
LayerCount: 2
Fore
SplineSet
3.740234375 248.298828125 m 1
 591 248.298828125 l 1
 591 183.728515625 l 1
 3.740234375 183.728515625 l 1
 3.740234375 248.298828125 l 1
EndSplineSet
Validated: 524289
EndChar

StartChar: quotedblleft
Encoding: 71 8220 72
Width: 329
VWidth: 0
Flags: W
HStem: 467.74 108.1<31.459 97.3515 186.799 252.698> 613.52 20G<61.6147 79.3047 216.955 234.645>
VStem: 0 108.1<478.481 564.978> 155.34 108.1<478.481 564.978>
LayerCount: 2
Fore
SplineSet
54.0498046875 575.83984375 m 0
 83.8798828125 575.83984375 108.08984375 551.620117188 108.099609375 521.790039062 c 0
 108.099609375 491.950195312 83.8798828125 467.740234375 54.0498046875 467.740234375 c 0
 24.2099609375 467.740234375 0 491.950195312 0 521.790039062 c 0
 0 541.76953125 0.4296875 552.3203125 7.08984375 571.950195312 c 0
 16.689453125 600.139648438 45.1396484375 615.009765625 78.08984375 633.51953125 c 1
 80.51953125 628.940429688 84.9296875 620.73046875 87.779296875 615.450195312 c 1
 81.3798828125 612.33984375 71.51953125 607.5 69.7900390625 606.629882812 c 0
 57.6796875 600.309570312 39.9501953125 586.48046875 31.1298828125 570.740234375 c 1
 38.1396484375 573.940429688 45.830078125 575.83984375 54.0498046875 575.83984375 c 0
209.389648438 575.83984375 m 0
 239.229492188 575.83984375 263.439453125 551.620117188 263.439453125 521.790039062 c 0
 263.439453125 491.950195312 239.229492188 467.740234375 209.389648438 467.740234375 c 0
 179.549804688 467.740234375 155.33984375 491.950195312 155.33984375 521.790039062 c 0
 155.33984375 541.76953125 155.76953125 552.3203125 162.4296875 571.950195312 c 0
 172.029296875 600.139648438 200.479492188 615.009765625 233.4296875 633.51953125 c 1
 235.859375 628.940429688 240.26953125 620.73046875 243.120117188 615.450195312 c 1
 236.719726562 612.33984375 226.859375 607.5 225.129882812 606.629882812 c 0
 213.01953125 600.309570312 195.290039062 586.48046875 186.469726562 570.740234375 c 1
 193.479492188 573.940429688 201.169921875 575.83984375 209.389648438 575.83984375 c 0
EndSplineSet
Validated: 524289
EndChar

StartChar: quotedblright
Encoding: 72 8221 73
Width: 308
VWidth: 0
Flags: W
HStem: 525.42 108.1<10.741 76.6406 166.088 231.98>
VStem: 0 108.1<536.282 622.779> 155.34 108.1<536.282 622.779>
LayerCount: 2
Fore
SplineSet
209.389648438 525.419921875 m 0
 179.559570312 525.419921875 155.349609375 549.639648438 155.33984375 579.469726562 c 0
 155.33984375 609.309570312 179.559570312 633.51953125 209.389648438 633.51953125 c 0
 239.229492188 633.51953125 263.439453125 609.309570312 263.439453125 579.469726562 c 0
 263.439453125 559.490234375 263.009765625 548.940429688 256.349609375 529.309570312 c 0
 246.75 501.120117188 218.299804688 486.25 185.349609375 467.740234375 c 1
 182.919921875 472.3203125 178.509765625 480.530273438 175.66015625 485.809570312 c 1
 182.059570312 488.919921875 191.919921875 493.759765625 193.649414062 494.629882812 c 0
 205.759765625 500.950195312 223.489257812 514.780273438 232.309570312 530.51953125 c 1
 225.299804688 527.3203125 217.609375 525.419921875 209.389648438 525.419921875 c 0
54.0498046875 525.419921875 m 0
 24.2099609375 525.419921875 0 549.639648438 0 579.469726562 c 0
 0 609.309570312 24.2099609375 633.51953125 54.0498046875 633.51953125 c 0
 83.8896484375 633.51953125 108.099609375 609.309570312 108.099609375 579.469726562 c 0
 108.099609375 559.490234375 107.669921875 548.940429688 101.009765625 529.309570312 c 0
 91.41015625 501.120117188 62.9599609375 486.25 30.009765625 467.740234375 c 1
 27.580078125 472.3203125 23.169921875 480.530273438 20.3193359375 485.809570312 c 1
 26.7197265625 488.919921875 36.580078125 493.759765625 38.3095703125 494.629882812 c 0
 50.419921875 500.950195312 68.1494140625 514.780273438 76.9697265625 530.51953125 c 1
 69.9599609375 527.3203125 62.26953125 525.419921875 54.0498046875 525.419921875 c 0
EndSplineSet
Validated: 524289
EndChar

StartChar: quoteleft
Encoding: 74 8216 74
Width: 150
VWidth: 0
Flags: W
HStem: 467.74 108.1<31.459 97.3557> 613.52 20G<61.6147 79.3047>
VStem: 0 108.1<478.481 564.978>
LayerCount: 2
Fore
SplineSet
54.0498046875 575.83984375 m 4
 83.8798828125 575.83984375 108.099609375 551.620117188 108.099609375 521.790039062 c 4
 108.099609375 491.950195312 83.8896484375 467.740234375 54.0498046875 467.740234375 c 4
 24.2099609375 467.740234375 0 491.950195312 0 521.790039062 c 4
 0 541.76953125 0.4296875 552.3203125 7.08984375 571.950195312 c 4
 16.689453125 600.139648438 45.1396484375 615.009765625 78.08984375 633.51953125 c 5
 80.51953125 628.940429688 84.9296875 620.73046875 87.7802734375 615.450195312 c 5
 81.3798828125 612.33984375 71.51953125 607.5 69.7900390625 606.629882812 c 4
 57.6796875 600.309570312 39.9501953125 586.48046875 31.1298828125 570.740234375 c 5
 38.1396484375 573.940429688 45.830078125 575.83984375 54.0498046875 575.83984375 c 4
EndSplineSet
Validated: 524289
EndChar

StartChar: quoteright
Encoding: 75 8217 75
Width: 143
VWidth: 0
Flags: W
HStem: 525.42 108.1<10.7439 76.6406>
VStem: 0 108.1<536.282 622.779>
LayerCount: 2
Fore
SplineSet
54.0498046875 525.419921875 m 0
 24.2197265625 525.419921875 0 549.639648438 0 579.469726562 c 0
 0 609.309570312 24.2197265625 633.51953125 54.0498046875 633.51953125 c 0
 83.8896484375 633.51953125 108.099609375 609.309570312 108.099609375 579.469726562 c 0
 108.099609375 559.490234375 107.669921875 548.940429688 101.009765625 529.309570312 c 0
 91.41015625 501.120117188 62.9599609375 486.25 30.009765625 467.740234375 c 1
 27.580078125 472.3203125 23.169921875 480.530273438 20.3193359375 485.809570312 c 1
 26.7197265625 488.919921875 36.580078125 493.759765625 38.3095703125 494.629882812 c 0
 50.419921875 500.950195312 68.1494140625 514.780273438 76.9697265625 530.51953125 c 1
 69.9599609375 527.3203125 62.26953125 525.419921875 54.0498046875 525.419921875 c 0
EndSplineSet
Validated: 524289
EndChar

StartChar: endash
Encoding: 76 8211 76
Width: 441
VWidth: 0
Flags: W
HStem: 183.729 64.5703<0 341.49>
LayerCount: 2
Fore
SplineSet
0 248.298828125 m 1
 341.490234375 248.298828125 l 1
 341.490234375 183.728515625 l 1
 0 183.728515625 l 1
 0 248.298828125 l 1
EndSplineSet
Validated: 524289
EndChar

StartChar: f_f
Encoding: 77 64256 77
Width: 533
VWidth: 0
Flags: W
HStem: 0 21G<68.9654 133.38 269.636 334.05> 413.54 19.8701<0 68.8799 133.38 269.55 334.05 416.859> 613.4 20.1191<157.285 224.498 357.066 426.258>
VStem: 68.9697 64.4102<0 413.54 433.41 595.023> 269.64 64.4102<0 413.54 433.41 564.576>
LayerCount: 2
Fore
SplineSet
383.409179688 633.51953125 m 0
 450.94921875 633.51953125 488.139648438 607.700195312 502.19921875 585.169921875 c 1
 468.359375 564.509765625 l 1
 435.599609375 602.940429688 416.989257812 613.400390625 386.080078125 613.400390625 c 0
 339.899414062 613.400390625 334.049804688 564.549804688 334.049804688 509.169921875 c 2
 334.049804688 433.41015625 l 1
 416.859375 433.41015625 l 1
 416.859375 413.540039062 l 1
 334.049804688 413.540039062 l 1
 334.049804688 0 l 1
 269.639648438 0 l 1
 269.559570312 413.540039062 l 1
 216.19921875 413.540039062 l 1
 200.669921875 413.540039062 l 1
 133.379882812 413.540039062 l 1
 133.379882812 0 l 1
 68.9697265625 0 l 1
 68.8798828125 413.540039062 l 1
 0 413.540039062 l 1
 0 433.41015625 l 1
 68.8896484375 433.41015625 l 1
 68.8896484375 509.169921875 l 2
 68.8896484375 590.08984375 102.51953125 633.51953125 182.75 633.51953125 c 0
 235.849609375 633.51953125 274.080078125 618.009765625 296.08984375 601.299804688 c 1
 314.509765625 622.509765625 343.059570312 633.51953125 383.409179688 633.51953125 c 0
269.549804688 509.169921875 m 2
 269.549804688 530.580078125 271.979492188 549.280273438 276.919921875 565.330078125 c 1
 241.189453125 598.16015625 215.639648438 613.400390625 185.399414062 613.400390625 c 0
 139.219726562 613.400390625 133.369140625 564.549804688 133.369140625 509.169921875 c 2
 133.369140625 433.41015625 l 1
 200.659179688 433.41015625 l 1
 216.189453125 433.41015625 l 1
 269.549804688 433.41015625 l 1
 269.549804688 509.169921875 l 2
EndSplineSet
Validated: 524289
LCarets2: 1 216
Ligature2: "'liga' Standard Ligatures in Latin lookup 0-1" f f
EndChar

StartChar: f_i
Encoding: 78 64257 78
Width: 413
VWidth: 0
Flags: W
HStem: 0 21G<68.9654 133.38 269.37 333.779> 413.54 19.8799<0 68.8799 133.38 269.37> 613.41 20.1201<163.89 234.295>
VStem: 68.9697 64.4102<0 413.54 433.42 590.505> 269.37 64.3994<0 413.54>
LayerCount: 2
Fore
SplineSet
333.779296875 0 m 1
 269.370117188 0 l 1
 269.370117188 413.540039062 l 1
 133.379882812 413.540039062 l 1
 133.379882812 0 l 1
 68.9697265625 0 l 1
 68.8798828125 413.549804688 l 1
 0 413.549804688 l 1
 0 433.419921875 l 1
 68.8798828125 433.419921875 l 1
 68.8798828125 509.1796875 l 2
 68.8798828125 590.099609375 109.879882812 633.530273438 190.109375 633.530273438 c 0
 257.649414062 633.530273438 299.01953125 607.709960938 313.080078125 585.1796875 c 1
 279.239257812 564.51953125 l 1
 246.489257812 602.950195312 223.689453125 613.41015625 192.779296875 613.41015625 c 0
 146.599609375 613.41015625 133.370117188 564.559570312 133.370117188 509.1796875 c 2
 133.370117188 433.419921875 l 1
 333.76953125 433.419921875 l 1
 333.76953125 0 l 1
 333.779296875 0 l 1
EndSplineSet
Validated: 524293
LCarets2: 1 0
Ligature2: "'liga' Standard Ligatures in Latin lookup 0-1" f i
EndChar

StartChar: f_f_i
Encoding: 79 64259 79
Width: 617
VWidth: 0
Flags: W
HStem: 0 21G<68.9849 133.4 273.566 337.98 473.97 538.38> 413.54 19.8701<0 68.8799 133.4 273.49 337.98 473.97> 613.4 20.1191<157.296 225.991 367.112 438.896>
VStem: 68.9902 64.4102<0 413.54 433.41 595.023> 273.57 64.4102<0 413.54 433.41 563.241> 473.97 64.4102<0 413.54>
LayerCount: 2
Fore
SplineSet
538.379882812 433.41015625 m 1
 538.379882812 0 l 1
 473.969726562 0 l 1
 473.969726562 413.540039062 l 1
 337.98046875 413.540039062 l 1
 337.98046875 0 l 1
 273.5703125 0 l 1
 273.490234375 413.540039062 l 1
 133.400390625 413.540039062 l 1
 133.400390625 0 l 1
 68.990234375 0 l 1
 68.8798828125 413.540039062 l 1
 0 413.540039062 l 1
 0 433.41015625 l 1
 68.8798828125 433.41015625 l 1
 68.8798828125 509.169921875 l 2
 68.8798828125 590.08984375 102.509765625 633.51953125 182.740234375 633.51953125 c 0
 234.830078125 633.51953125 275.600585938 618.240234375 301.790039062 599.299804688 c 1
 301.669921875 599.150390625 301.58984375 598.919921875 301.48046875 598.740234375 c 1
 321.73046875 621.5703125 352.8203125 633.51953125 394.709960938 633.51953125 c 0
 462.25 633.51953125 503.620117188 607.709960938 517.680664062 585.169921875 c 1
 483.83984375 564.509765625 l 1
 451.08984375 602.940429688 428.290039062 613.400390625 397.379882812 613.400390625 c 0
 351.200195312 613.400390625 337.98046875 564.549804688 337.98046875 509.169921875 c 2
 337.98046875 433.41015625 l 1
 538.379882812 433.41015625 l 1
133.400390625 433.41015625 m 1
 273.490234375 433.41015625 l 1
 273.490234375 509.169921875 l 2
 273.490234375 529.969726562 276.25 548.240234375 281.629882812 563.98046875 c 1
 281.600585938 563.9296875 281.560546875 563.900390625 281.530273438 563.849609375 c 1
 243.8203125 599.209960938 214.669921875 613.400390625 185.430664062 613.400390625 c 0
 139.25 613.400390625 133.400390625 564.549804688 133.400390625 509.169921875 c 2
 133.400390625 433.41015625 l 1
EndSplineSet
Validated: 524289
Ligature2: "'liga' Standard Ligatures in Latin lookup 0-1" f f i
EndChar

StartChar: f_l
Encoding: 80 64258 80
Width: 403
VWidth: 0
Flags: W
HStem: 0 21G<68.9654 133.409 269.359 333.68> 413.55 19.8604<0.0292969 68.8799 133.409 216.22> 613.4 20.1299<161.49 235.905>
VStem: 68.9697 64.4395<0 413.55 433.42 591.176> 269.359 64.3203<0 595.503>
LayerCount: 2
Fore
SplineSet
133.409179688 509.169921875 m 2
 133.409179688 433.41015625 l 1
 216.189453125 433.41015625 l 1
 216.219726562 433.41015625 l 1
 216.219726562 413.549804688 l 1
 216.189453125 413.549804688 l 1
 133.409179688 413.549804688 l 1
 133.409179688 0 l 1
 133.379882812 0 l 1
 69 0 l 1
 68.9697265625 0 l 1
 68.8798828125 413.549804688 l 1
 0 413.549804688 l 1
 0 433.419921875 l 1
 0.029296875 433.419921875 l 1
 68.8798828125 433.419921875 l 1
 68.8798828125 509.1796875 l 2
 68.8798828125 559.120117188 83.94921875 594.73046875 114.309570312 614.719726562 c 0
 133.129882812 627.120117188 157.809570312 633.530273438 188.51953125 633.530273438 c 2
 188.51953125 633.530273438 188.529296875 633.530273438 188.529296875 633.530273438 c 1
 188.529296875 633.530273438 188.529296875 633.530273438 188.540039062 633.530273438 c 0
 248.149414062 633.530273438 294.969726562 618.66015625 333.6796875 575.830078125 c 1
 333.6796875 0 l 1
 269.359375 0 l 1
 269.359375 575.299804688 l 1
 241.599609375 609.940429688 214.559570312 613.400390625 191.19921875 613.400390625 c 0
 158.959960938 613.400390625 133.409179688 588.879882812 133.409179688 509.169921875 c 2
EndSplineSet
Validated: 524289
Ligature2: "'liga' Standard Ligatures in Latin lookup 0-1" f l
EndChar

StartChar: f_f_l
Encoding: 81 64260 81
Width: 612
VWidth: 0
Flags: W
HStem: 0 21G<68.9747 133.39 273.555 338.06 474.02 538.34> 413.55 19.8604<0 68.8799 133.39 273.47 338.06 474.01> 613.4 20.1191<157.29 225.941 366.667 441.733>
VStem: 68.9795 64.4102<0 413.55 433.41 595.023> 273.56 64.5<0 413.54 433.41 562.689> 474.02 64.3203<0 413.54 433.41 595.973>
LayerCount: 2
Fore
SplineSet
301.549804688 599.4296875 m 1
 326.240234375 626.200195312 355.889648438 633.51953125 397.620117188 633.51953125 c 0
 437.1796875 633.51953125 494.5703125 625.98046875 538.33984375 575.8203125 c 1
 538.33984375 0 l 1
 474.01953125 0 l 1
 474.01953125 413.540039062 l 1
 338.059570312 413.540039062 l 1
 338.059570312 0 l 1
 338.030273438 0 l 1
 337.969726562 0 l 1
 273.650390625 0 l 1
 273.620117188 0 l 1
 273.559570312 0 l 1
 273.469726562 413.549804688 l 1
 133.389648438 413.549804688 l 1
 133.389648438 0 l 1
 68.9794921875 0 l 1
 68.8798828125 413.549804688 l 1
 0 413.549804688 l 1
 0 433.41015625 l 1
 68.8798828125 433.41015625 l 1
 68.8798828125 509.169921875 l 2
 68.8798828125 590.08984375 102.509765625 633.51953125 182.740234375 633.51953125 c 0
 234.719726562 633.51953125 275.400390625 618.290039062 301.549804688 599.4296875 c 1
273.469726562 433.41015625 m 1
 273.469726562 504.73046875 271.8203125 538.620117188 281.549804688 563.879882812 c 1
 243.809570312 599.209960938 214.66015625 613.400390625 185.419921875 613.400390625 c 0
 139.240234375 613.400390625 133.389648438 564.549804688 133.389648438 509.169921875 c 2
 133.389648438 433.41015625 l 1
 273.469726562 433.41015625 l 1
397.120117188 613.379882812 m 0
 356.129882812 613.379882812 338.049804688 574.080078125 338.049804688 509.169921875 c 2
 338.049804688 433.41015625 l 1
 474.009765625 433.41015625 l 1
 474.009765625 575.299804688 l 1
 446.009765625 610.200195312 420.290039062 613.379882812 397.120117188 613.379882812 c 0
EndSplineSet
Validated: 524321
Ligature2: "'liga' Standard Ligatures in Latin lookup 0-1" f f l
EndChar

StartChar: parenleft
Encoding: 83 40 82
Width: 220
VWidth: 0
Flags: W
VStem: 0.429688 42.5<170.798 523.958>
LayerCount: 2
Fore
SplineSet
62.8701171875 142.830078125 m 1
 75.5595703125 79.33984375 93.7900390625 22.3095703125 115.58984375 -22.2197265625 c 1
 87.9404296875 -28.1904296875 l 1
 87.9404296875 -28.1904296875 0.4296875 147.450195312 0.4296875 347.110351562 c 0
 0.4296875 546.76953125 86.900390625 722.23046875 86.900390625 722.23046875 c 1
 115.599609375 716.379882812 l 1
 81.73046875 644.5703125 42.9296875 485.809570312 42.9296875 347.120117188 c 0
 42.9296875 276.419921875 50.2001953125 206.33984375 62.8798828125 142.83984375 c 1
 62.8701171875 142.830078125 l 1
EndSplineSet
Validated: 524289
EndChar

StartChar: parenright
Encoding: 84 41 83
Width: 223
VWidth: 0
Flags: W
VStem: 76.0596 42.5508<173.042 522.559>
LayerCount: 2
Fore
SplineSet
118.610351562 347.110351562 m 1
 118.610351562 147.450195312 31.099609375 -28.1904296875 31.099609375 -28.1904296875 c 1
 3.3896484375 -22.2197265625 l 1
 47.1201171875 66.8896484375 76.0595703125 205.650390625 76.0595703125 347.110351562 c 0
 76.0595703125 416.450195312 66.3896484375 490.849609375 52.4697265625 556.809570312 c 0
 38.5498046875 622.830078125 20.3203125 680.469726562 3.3896484375 716.379882812 c 1
 32.150390625 722.23046875 l 1
 32.150390625 722.23046875 118.620117188 546.709960938 118.620117188 347.110351562 c 1
 118.610351562 347.110351562 l 1
EndSplineSet
Validated: 524289
EndChar

StartChar: ampersand
Encoding: 85 38 84
Width: 531
VWidth: 0
Flags: W
HStem: 0.00976562 44.7002<73.2402 312.33> 314.58 34.9199<77.2598 277.91 330.83 421.57>
VStem: 277.91 39.3799<109.922 314.52> 437.93 27.2607<31.0049 93.3096>
LayerCount: 2
Fore
SplineSet
52.6904296875 596.040039062 m 1
 52.7001953125 596.040039062 l 1
 138.669921875 693.830078125 298.349609375 699.919921875 348.990234375 595.559570312 c 0
 374.549804688 542.889648438 371.799804688 460.389648438 330.830078125 349.5 c 1
 421.5703125 349.5 l 1
 421.5703125 314.51953125 l 1
 317.290039062 314.51953125 l 1
 300.099609375 252.6796875 306.030273438 143.549804688 332.370117188 81.0498046875 c 0
 358.259765625 19.6103515625 390.620117188 4.2998046875 419.139648438 24.8701171875 c 0
 437.75 38.2900390625 439.790039062 73.41015625 437.9296875 93.3095703125 c 1
 465.190429688 93.3095703125 l 1
 468.1796875 41 452.3203125 -10.41015625 401.969726562 -15.3798828125 c 0
 378.419921875 -17.7001953125 360.83984375 -11.6298828125 341.690429688 0.009765625 c 1
 2.7197265625 0.009765625 l 1
 2.7197265625 0.009765625 27.849609375 146.26953125 2.7197265625 388.669921875 c 0
 -6.099609375 473.73046875 10.91015625 548.509765625 52.6904296875 596.040039062 c 1
73.240234375 44.7099609375 m 1
 73.23046875 44.7099609375 l 2
 126.5703125 44.7099609375 199.4296875 44.98046875 312.330078125 44.98046875 c 1
 277.849609375 118.330078125 258.440429688 198.8203125 277.91015625 314.580078125 c 1
 77.259765625 314.580078125 l 1
 89.6298828125 169.030273438 73.240234375 44.7099609375 73.240234375 44.7099609375 c 1
315.440429688 536.98046875 m 1
 315.450195312 536.98046875 l 1
 300.4296875 653.990234375 201.08984375 651.790039062 139.26953125 601.349609375 c 0
 84.330078125 556.540039062 56.1298828125 459.6796875 73.25 349.5 c 1
 287.23046875 349.5 l 1
 287.23046875 349.5 325.83984375 455.959960938 315.440429688 536.98046875 c 1
EndSplineSet
Validated: 524325
EndChar

StartChar: at
Encoding: 86 64 85
Width: 743
VWidth: 0
Flags: W
VStem: 634.36 35.04<203.77 418.023>
LayerCount: 2
Fore
SplineSet
496.73046875 -27.3603515625 m 1
 496.740234375 -27.3701171875 l 1
 495.51953125 -35.66015625 494.700195312 -44.2998046875 493.66015625 -51.8701171875 c 1
 456.1796875 -75.4296875 353 -90.400390625 300.900390625 -88.5595703125 c 0
 113.91015625 -81.9501953125 -6.83984375 37.4296875 0.6103515625 234.120117188 c 0
 8.0498046875 430.860351562 146.030273438 597.330078125 351.129882812 617 c 0
 537.389648438 634.860351562 677.549804688 497.75 669.400390625 301.08984375 c 0
 661.110351562 100.940429688 544.780273438 52.6904296875 503.58984375 41.5595703125 c 0
 438.9296875 24.08984375 394.440429688 70.3095703125 400.219726562 122.309570312 c 1
 400.219726562 122.309570312 339.33984375 38.900390625 257.969726562 44.8798828125 c 0
 139.790039062 53.6103515625 121.400390625 291.190429688 222.740234375 410.400390625 c 0
 289.540039062 488.98046875 420.6796875 480.509765625 494.530273438 446.290039062 c 1
 494.530273438 446.290039062 455.299804688 206.190429688 450.3203125 118.719726562 c 0
 445.780273438 38.9296875 554.639648438 89.3203125 598.5 163.110351562 c 0
 625.9296875 209.25 632.290039062 255.4296875 634.360351562 306.870117188 c 0
 641.330078125 479.740234375 513.330078125 595.309570312 349.709960938 579.540039062 c 0
 186.08984375 563.830078125 59.0498046875 451.790039062 41.580078125 238.110351562 c 0
 27.490234375 65.73046875 136.440429688 -47.849609375 300.599609375 -57.3603515625 c 0
 370.009765625 -61.3798828125 454.33984375 -45.3701171875 496.73046875 -27.3603515625 c 1
298.469726562 94.1796875 m 0
 410.48046875 114.650390625 431.200195312 334.129882812 434.889648438 426.23046875 c 1
 434.889648438 426.23046875 333.16015625 471.860351562 260.08984375 391.940429688 c 0
 164.809570312 287.73046875 181.830078125 72.8701171875 298.469726562 94.1796875 c 0
EndSplineSet
Validated: 524321
EndChar

StartChar: copyright
Encoding: 87 169 86
Width: 690
VWidth: 0
Flags: W
HStem: 19.3301 26.9297<220.677 385.971> 598.52 30.0303<213.889 389.196>
VStem: -0.610352 31.4199<233.591 412.739> 135.79 39.6396<240.137 413.584> 433.03 16.3896<204.423 227.9 413.7 417.23> 578.56 30.0508<233.591 409.143>
LayerCount: 2
Fore
SplineSet
304 628.549804688 m 0
 472.23046875 628.549804688 608.610351562 492.169921875 608.610351562 323.940429688 c 0
 608.610351562 155.709960938 472.23046875 19.330078125 304 19.330078125 c 0
 135.76953125 19.330078125 -0.6103515625 155.709960938 -0.6103515625 323.940429688 c 0
 -0.6103515625 492.169921875 135.76953125 628.549804688 304 628.549804688 c 0
302.440429688 46.259765625 m 0
 454.940429688 46.259765625 578.559570312 169.879882812 578.559570312 322.389648438 c 0
 578.559570312 474.900390625 454.940429688 598.51953125 302.440429688 598.51953125 c 0
 149.940429688 598.51953125 30.8095703125 474.900390625 30.8095703125 322.389648438 c 0
 30.8095703125 169.879882812 149.940429688 46.259765625 302.440429688 46.259765625 c 0
433.030273438 227.900390625 m 1
 433.049804688 227.889648438 l 2
 433.75 230.98046875 436.240234375 233.259765625 439.389648438 233.259765625 c 2
 449.419921875 233.259765625 l 1
 446.169921875 202.25 432.379882812 175.51953125 406.639648438 154.639648438 c 0
 335.83984375 97.2001953125 236.98046875 127.040039062 193.379882812 172.3203125 c 0
 158.01953125 209.030273438 135.790039062 262.629882812 135.790039062 324.33984375 c 0
 135.790039062 386.049804688 156.830078125 438 192.830078125 473.620117188 c 0
 241.469726562 521.76953125 287.940429688 521.76953125 325.6796875 521.76953125 c 0
 377.790039062 521.76953125 435.3203125 486.849609375 444.860351562 413.700195312 c 1
 444.860351562 413.700195312 441.990234375 413.3203125 441.009765625 413.16015625 c 0
 438.620117188 412.889648438 436.01953125 414.360351562 435.639648438 417.23046875 c 2
 435.639648438 417.23046875 434.169921875 423.950195312 431.6796875 429.3203125 c 0
 423.599609375 446.889648438 410.200195312 481.150390625 373.169921875 495.08984375 c 0
 240.48046875 545.080078125 175.4296875 412.33984375 175.4296875 326.559570312 c 0
 175.4296875 245.759765625 222.639648438 182.940429688 264.389648438 158.490234375 c 0
 305.98046875 134.040039062 390.950195312 143.469726562 421.860351562 198.01953125 c 0
 426.690429688 206.58984375 431.620117188 221.719726562 433.030273438 227.900390625 c 1
EndSplineSet
Validated: 524321
EndChar

StartChar: less
Encoding: 88 60 87
Width: 315
VWidth: 0
Flags: W
VStem: -0.389648 218.779
LayerCount: 2
Fore
SplineSet
214.849609375 9.0703125 m 1
 163.620117188 9.0703125 l 1
 -0.3896484375 232.98046875 l 1
 180.530273438 452.540039062 l 1
 218.389648438 452.540039062 l 1
 43.2802734375 239.240234375 l 1
 214.849609375 9.0703125 l 1
EndSplineSet
Validated: 524289
EndChar

StartChar: greater
Encoding: 89 62 88
Width: 315
VWidth: 0
Flags: W
VStem: -3.38965 218.779
LayerCount: 2
Fore
SplineSet
0.150390625 452.540039062 m 1
 51.3798828125 452.540039062 l 1
 215.389648438 228.629882812 l 1
 34.4697265625 9.0703125 l 1
 -3.3896484375 9.0703125 l 1
 171.719726562 222.360351562 l 1
 0.150390625 452.540039062 l 1
EndSplineSet
Validated: 524289
EndChar
